<svg id="Capa_1" enable-background="new 0 0 512 512" height="512" viewBox="0 0 512 512" width="512" xmlns="http://www.w3.org/2000/svg"><g><path d="m170.667 197.073v144.26c0 9.426 7.641 17.067 17.067 17.067s17.067-7.641 17.067-17.067v-34.133c0-9.426 7.641-17.067 17.067-17.067s17.067 7.641 17.067 17.067v132.8c0 9.426 7.641 17.067 17.067 17.067s17.067-7.641 17.067-17.067v-98.667c0-9.426 7.641-17.067 17.067-17.067s17.067 7.641 17.067 17.067v56c0 9.426 7.641 17.067 17.067 17.067s17.067-7.641 17.067-17.067v-200.26z" fill="#85d9ff"/><path d="m307.2 494.933c0 9.426 7.641 17.067 17.067 17.067s17.067-7.641 17.067-17.067v-34.133c0-9.426-7.641-17.067-17.067-17.067s-17.067 7.641-17.067 17.067z" fill="#85d9ff"/><path d="m170.667 494.933c0 9.426 7.641 17.067 17.067 17.067s17.067-7.641 17.067-17.067v-85.333c0-9.426-7.641-17.067-17.067-17.067s-17.067 7.641-17.067 17.067z" fill="#85d9ff"/><g><g><g><path d="m34.133 502.66c-4.267 0-7.726-3.459-7.726-7.726v-34.134c0-4.267 3.459-7.726 7.726-7.726s7.726 3.459 7.726 7.726v34.133c.001 4.267-3.459 7.727-7.726 7.727z" fill="#b0d16f"/></g><g><path d="m34.133 434.393c-4.267 0-7.726-3.459-7.726-7.726v-204.8c0-4.267 3.459-7.726 7.726-7.726s7.726 3.459 7.726 7.726v204.8c.001 4.267-3.459 7.726-7.726 7.726z" fill="#b0d16f"/></g></g></g><g><g><g><path d="m102.4 468.526c-4.267 0-7.726-3.459-7.726-7.726v-34.133c0-4.267 3.459-7.726 7.726-7.726s7.726 3.459 7.726 7.726v34.133c0 4.267-3.459 7.726-7.726 7.726z" fill="#b0d16f"/></g><g><path d="m102.4 400.26c-4.267 0-7.726-3.459-7.726-7.726v-204.8c0-4.267 3.459-7.726 7.726-7.726s7.726 3.459 7.726 7.726v204.8c0 4.266-3.459 7.726-7.726 7.726z" fill="#b0d16f"/></g></g></g><g><g><g><path d="m477.866 502.66c-4.268 0-7.726-3.459-7.726-7.726v-34.134c0-4.267 3.459-7.726 7.726-7.726s7.726 3.459 7.726 7.726v34.133c.001 4.267-3.458 7.727-7.726 7.727z" fill="#b0d16f"/></g><g><path d="m477.866 434.393c-4.268 0-7.726-3.459-7.726-7.726v-204.8c0-4.267 3.459-7.726 7.726-7.726s7.726 3.459 7.726 7.726v204.8c.001 4.267-3.458 7.726-7.726 7.726z" fill="#b0d16f"/></g></g></g><g><g><g><path d="m409.6 468.526c-4.268 0-7.726-3.459-7.726-7.726v-34.133c0-4.267 3.459-7.726 7.726-7.726s7.726 3.459 7.726 7.726v34.133c0 4.267-3.459 7.726-7.726 7.726z" fill="#b0d16f"/></g><g><path d="m409.6 400.26c-4.268 0-7.726-3.459-7.726-7.726v-204.8c0-4.267 3.459-7.726 7.726-7.726s7.726 3.459 7.726 7.726v204.8c0 4.266-3.459 7.726-7.726 7.726z" fill="#b0d16f"/></g></g></g><g><g fill="#45c5ff"><path d="m198.172 290.133c-9.425 0-17.067 7.641-17.067 17.067v34.133c0 4.82-2.006 9.165-5.22 12.269 3.07 2.965 7.242 4.798 11.847 4.798 9.426 0 17.067-7.641 17.067-17.067v-34.133c0-4.82 2.006-9.165 5.22-12.269-3.07-2.965-7.241-4.798-11.847-4.798z"/><path d="m266.439 324.267c-9.426 0-17.067 7.641-17.067 17.067v98.666c0 4.82-2.006 9.165-5.22 12.269 3.07 2.965 7.242 4.798 11.847 4.798 9.426 0 17.067-7.641 17.067-17.067v-98.667c0-4.82 2.006-9.165 5.22-12.269-3.07-2.965-7.241-4.797-11.847-4.797z"/><path d="m317.639 197.073v200.26c0 4.82-2.006 9.165-5.219 12.269 3.07 2.965 7.242 4.798 11.847 4.798 9.426 0 17.067-7.641 17.067-17.067v-200.26z"/></g></g><path d="m324.267 443.733c-4.605 0-8.777 1.833-11.847 4.798 3.213 3.103 5.219 7.449 5.219 12.269v34.133c0 4.82-2.006 9.165-5.219 12.269 3.07 2.965 7.242 4.798 11.847 4.798 9.426 0 17.067-7.641 17.067-17.067v-34.133c-.001-9.426-7.642-17.067-17.067-17.067z" fill="#45c5ff"/><path d="m187.733 392.533c-4.605 0-8.777 1.833-11.847 4.798 3.213 3.104 5.22 7.448 5.22 12.269v85.333c0 4.82-2.006 9.165-5.22 12.269 3.07 2.965 7.242 4.798 11.847 4.798 9.426 0 17.067-7.641 17.067-17.067v-85.333c0-9.426-7.641-17.067-17.067-17.067z" fill="#45c5ff"/><circle cx="256" cy="136.533" fill="#ffcc4a" r="119.467"/><path d="m256 17.067c-3.998 0-7.95.2-11.847.584 60.418 5.948 107.62 56.901 107.62 118.882s-47.202 112.934-107.62 118.883c3.897.384 7.849.584 11.847.584 65.98 0 119.467-53.487 119.467-119.467 0-65.979-53.487-119.466-119.467-119.466z" fill="#ffb54c"/><g fill="#ffe278"><path d="m256 17.067c-2.597 0-5.171.092-7.726.255v33.878c0 4.267 3.459 7.726 7.726 7.726s7.726-3.459 7.726-7.726v-33.878c-2.555-.163-5.13-.255-7.726-.255z"/><path d="m166.242 57.702 23.955 23.955c1.509 1.509 3.486 2.263 5.463 2.263s3.955-.755 5.463-2.263c3.018-3.017 3.018-7.909 0-10.927l-23.955-23.955c-3.872 3.404-7.522 7.054-10.926 10.927z"/><path d="m170.667 128.807h-33.878c-.163 2.555-.256 5.13-.256 7.726s.092 5.171.256 7.727h33.878c4.267 0 7.726-3.459 7.726-7.726 0-4.268-3.459-7.727-7.726-7.727z"/><path d="m190.197 191.41-23.955 23.955c3.404 3.873 7.054 7.523 10.927 10.926l23.955-23.955c3.018-3.017 3.018-7.91 0-10.927-3.018-3.016-7.91-3.016-10.927.001z"/><path d="m256 214.14c-4.267 0-7.726 3.459-7.726 7.726v33.878c2.555.163 5.13.256 7.726.256s5.171-.092 7.726-.256v-33.878c0-4.267-3.459-7.726-7.726-7.726z"/><path d="m345.758 215.365-23.955-23.955c-3.017-3.017-7.909-3.017-10.927 0s-3.018 7.909 0 10.927l23.955 23.955c3.873-3.404 7.523-7.054 10.927-10.927z"/><path d="m334.831 46.775-23.955 23.955c-3.018 3.017-3.018 7.909 0 10.927 1.509 1.509 3.486 2.263 5.463 2.263s3.955-.755 5.463-2.263l23.955-23.955c-3.403-3.873-7.053-7.523-10.926-10.927z"/><path d="m375.211 128.807h-33.878c-4.267 0-7.726 3.459-7.726 7.726s3.459 7.726 7.726 7.726h33.878c.163-2.555.255-5.13.255-7.727s-.092-5.17-.255-7.725z"/></g><path d="m309.81 170.667h48.59c28.277 0 51.2-22.923 51.2-51.2v-12.328h-99.79z" fill="#f4fbff"/><path d="m385.906 107.139v12.328c0 28.277-22.923 51.2-51.2 51.2h23.694c28.277 0 51.2-22.923 51.2-51.2v-12.328z" fill="#bfebff"/><path d="m361.079 119.467h48.521c28.277 0 51.2-22.923 51.2-51.2v-12.637h-91.384z" fill="#abd5ed"/><path d="m437.106 55.63v12.637c0 28.277-22.923 51.2-51.2 51.2h23.694c28.277 0 51.2-22.923 51.2-51.2v-12.637z" fill="#97bedb"/><path d="m389.278 17.067h118.447c2.498 0 4.481 2.14 4.258 4.628-2.339 26.108-24.277 46.572-50.994 46.572h-75.99z" fill="#f4fbff"/><path d="m309.81 101.095h23.839c14.392-4.105 24.901-17.419 24.75-33.163-.362-37.636 31.028-67.932 68.665-67.932h24.592c5.226 0 9.188 4.651 8.442 9.824-4.58 31.78-31.052 56.483-63.637 58.331-2.186.124-3.915 1.853-4.039 4.039-1.706 30.074-22.879 54.94-51.116 62.195h-31.496z" fill="#abd5ed"/><path d="m451.656 0h-23.694c5.227 0 9.188 4.651 8.443 9.824-4.58 31.78-31.052 56.483-63.637 58.331-2.186.124-3.915 1.853-4.039 4.039-1.706 30.074-22.879 54.94-51.116 62.195h23.694c28.237-7.255 49.41-32.121 51.116-62.195.124-2.186 1.853-3.915 4.039-4.039 32.586-1.848 59.057-26.551 63.637-58.331.745-5.173-3.217-9.824-8.443-9.824z" fill="#97bedb"/><path d="m507.725 17.067h-23.694c2.498 0 4.481 2.14 4.258 4.628-2.339 26.108-24.277 46.572-50.994 46.572h23.694c26.717 0 48.655-20.463 50.994-46.572.223-2.488-1.76-4.628-4.258-4.628z" fill="#bfebff"/><path d="m202.19 170.667h-48.59c-28.277 0-51.2-22.923-51.2-51.2v-12.328h99.79z" fill="#f4fbff"/><path d="m202.19 134.389v-27.25h-93.832c12.283 16.71 32.292 27.251 54.163 27.251z" fill="#bfebff"/><path d="m150.922 119.467h-48.522c-28.277 0-51.2-22.923-51.2-51.2v-12.637h91.384z" fill="#abd5ed"/><path d="m142.584 55.63h-86.39c10.168 7.247 22.407 11.776 35.658 12.526 2.186.124 3.906 1.852 4.03 4.039.149 2.622.445 5.204.882 7.738 2.769 16.081 11.389 29.857 23.403 39.534h30.754z" fill="#97bedb"/><path d="m122.722 17.067h-118.447c-2.498 0-4.481 2.14-4.258 4.628 2.339 26.108 24.277 46.572 50.994 46.572h75.99z" fill="#f4fbff"/><path d="m122.722 17.067h-93.05c7.266 28.22 32.109 49.383 62.171 51.089.254.015.5.055.74.111h34.418z" fill="#bfebff"/><path d="m202.19 101.095h-23.839c-14.392-4.105-24.901-17.419-24.75-33.163.362-37.636-31.028-67.932-68.665-67.932h-24.592c-5.226 0-9.188 4.651-8.442 9.824 4.58 31.78 31.052 56.483 63.637 58.331 2.186.124 3.915 1.853 4.039 4.039 1.706 30.074 22.879 54.94 51.116 62.195h31.496z" fill="#abd5ed"/><path d="m129.908 67.931c-.005.492.001.981.017 1.469.58 17.789 15.645 31.695 33.443 31.695h14.984c-14.392-4.105-24.901-17.419-24.75-33.163.361-37.636-31.029-67.932-68.666-67.932h-23.694c37.637 0 69.027 30.296 68.666 67.931z" fill="#97bedb"/><circle cx="256" cy="136.533" fill="#ffb54c" r="85.333"/><path d="m256 128.807c-7.033 0-12.754-5.721-12.754-12.754 0-7.032 5.721-12.754 12.754-12.754 7.032 0 12.753 5.721 12.753 12.754 0 4.267 3.459 7.726 7.726 7.726s7.726-3.459 7.726-7.726c0-12.874-8.673-23.753-20.48-27.122v-3.598c0-4.267-3.459-7.726-7.726-7.726s-7.726 3.459-7.726 7.726v3.598c-11.807 3.369-20.48 14.248-20.48 27.122 0 15.553 12.653 28.207 28.207 28.207 7.032 0 12.753 5.721 12.753 12.753s-5.721 12.754-12.753 12.754c-7.033 0-12.754-5.721-12.754-12.754 0-4.267-3.459-7.726-7.726-7.726s-7.726 3.459-7.726 7.726c0 12.874 8.673 23.753 20.48 27.122v3.598c0 4.267 3.459 7.726 7.726 7.726s7.726-3.459 7.726-7.726v-3.598c11.807-3.369 20.48-14.248 20.48-27.122 0-15.552-12.653-28.206-28.206-28.206z" fill="#ffe278"/><path d="m256 51.2c-4.022 0-7.973.299-11.847.837 41.518 5.77 73.486 41.39 73.486 84.496s-31.968 78.726-73.486 84.496c3.874.538 7.825.837 11.847.837 47.128 0 85.333-38.205 85.333-85.333s-38.205-85.333-85.333-85.333z" fill="#ff9959"/></g></svg>