<svg id="Capa_1" enable-background="new 0 0 512 512" height="512" viewBox="0 0 512 512" width="512" xmlns="http://www.w3.org/2000/svg"><g><path d="m239.45 327.058h-67.252c-18.571 0-33.626-15.055-33.626-33.626v-8.406c0-4.643 3.764-8.406 8.406-8.406h58.845c18.571 0 33.626 15.055 33.626 33.626h33.626c0-18.571 15.055-33.626 33.626-33.626h58.845c4.643 0 8.406 3.764 8.406 8.406v8.406c0 18.571-15.055 33.626-33.626 33.626h-67.252z" fill="#b0d16f"/><path d="m365.546 276.62h-23.342c4.643 0 8.407 3.764 8.407 8.406v8.406c0 18.571-15.055 33.626-33.626 33.626h23.342c18.571 0 33.626-15.055 33.626-33.626v-8.406c0-4.643-3.764-8.406-8.407-8.406z" fill="#89c247"/><path d="m205.824 276.62h-23.342c18.571 0 33.626 15.055 33.626 33.626v16.813h23.342v-16.813c0-18.572-15.055-33.626-33.626-33.626z" fill="#89c247"/><path d="m239.45 237.48h33.626v145.531h-33.626z" fill="#587aa1"/><path d="m273.076 336.26h-.001-33.625v15.223h33.625.001z" fill="#455f80"/><path d="m249.734 237.48h23.342v145.531h-23.342z" fill="#455f80"/><path d="m340.327 411.123-6.465 85.335c-.664 8.767-7.972 15.542-16.764 15.542h-121.67c-8.793 0-16.101-6.775-16.765-15.543l-6.465-85.335v-14.563h168.129z" fill="#ff9959"/><path d="m316.985 396.559v14.563l-6.465 85.335c-.664 8.768-7.972 15.543-16.765 15.543h23.342c8.793 0 16.1-6.775 16.765-15.543l6.465-85.335v-14.563z" fill="#ff776b"/><path d="m172.198 411.123 1.766 23.309h164.597l1.766-23.309v-14.564h-168.129z" fill="#ff776b"/><g><g><g><path d="m88.133 132.915h-33.625c-4.204 0-7.611-3.408-7.611-7.611 0-4.204 3.407-7.611 7.611-7.611h33.625c4.204 0 7.611 3.408 7.611 7.611.001 4.203-3.406 7.611-7.611 7.611z" fill="#85d9ff"/></g><g><path d="m86.05 250.607c-2.63 0-5.189-1.365-6.599-3.807-2.102-3.641-.854-8.296 2.786-10.397l29.121-16.813c3.639-2.103 8.296-.855 10.397 2.786 2.102 3.641.854 8.296-2.786 10.397l-29.121 16.813c-1.197.692-2.506 1.021-3.798 1.021z" fill="#85d9ff"/></g><g><path d="m425.95 250.607c-1.291 0-2.6-.329-3.799-1.021l-29.121-16.813c-3.64-2.102-4.888-6.757-2.786-10.397 2.1-3.641 6.754-4.889 10.397-2.786l29.121 16.813c3.64 2.102 4.888 6.757 2.786 10.397-1.409 2.441-3.968 3.807-6.598 3.807z" fill="#85d9ff"/></g><g><path d="m457.492 132.915h-33.625c-4.204 0-7.611-3.408-7.611-7.611 0-4.204 3.407-7.611 7.611-7.611h33.625c4.204 0 7.611 3.408 7.611 7.611s-3.407 7.611-7.611 7.611z" fill="#85d9ff"/></g><g><path d="m396.843 32.039c-2.63 0-5.188-1.365-6.599-3.807-2.102-3.64-.854-8.296 2.786-10.397l29.121-16.813c3.638-2.102 8.295-.855 10.397 2.786 2.102 3.64.854 8.296-2.786 10.397l-29.121 16.813c-1.197.692-2.507 1.021-3.798 1.021z" fill="#85d9ff"/></g><g><path d="m115.157 32.039c-1.291 0-2.6-.329-3.799-1.021l-29.121-16.813c-3.64-2.102-4.888-6.757-2.786-10.397 2.101-3.642 6.754-4.889 10.397-2.786l29.121 16.813c3.64 2.101 4.888 6.757 2.786 10.397-1.409 2.442-3.968 3.807-6.598 3.807z" fill="#85d9ff"/></g></g></g><path d="m349.14 411.123h-185.755c-4.418 0-8-3.582-8-8v-17.626c0-4.418 3.582-8 8-8h185.755c4.418 0 8 3.582 8 8v17.626c0 4.418-3.582 8-8 8z" fill="#ff9959"/><g><circle cx="256.254" cy="125.304" fill="#ffcc4a" r="117.69"/><path d="m256.254 7.613c-3.939 0-7.831.197-11.671.575 59.519 5.86 106.019 56.055 106.019 117.115s-46.5 111.255-106.019 117.115c3.84.378 7.732.575 11.671.575 64.998 0 117.69-52.692 117.69-117.69s-52.692-117.69-117.69-117.69z" fill="#ffb54c"/><g fill="#ffe278"><path d="m256.254 7.613c-2.558 0-5.094.091-7.611.252v33.374c0 4.204 3.408 7.612 7.611 7.612 4.204 0 7.612-3.408 7.612-7.612v-33.374c-2.518-.161-5.054-.252-7.612-.252z"/><path d="m167.83 47.644 23.599 23.599c1.486 1.486 3.434 2.229 5.382 2.229s3.896-.743 5.382-2.229c2.973-2.972 2.973-7.792 0-10.764l-23.599-23.599c-3.815 3.353-7.41 6.949-10.764 10.764z"/><path d="m172.189 117.692h-33.374c-.161 2.517-.252 5.054-.252 7.611 0 2.558.091 5.094.252 7.612h33.374c4.204 0 7.611-3.408 7.611-7.611.001-4.204-3.407-7.612-7.611-7.612z"/><path d="m191.429 179.364-23.599 23.599c3.353 3.815 6.949 7.411 10.764 10.764l23.599-23.599c2.973-2.972 2.973-7.792 0-10.764-2.972-2.972-7.792-2.972-10.764 0z"/><path d="m256.254 201.756c-4.204 0-7.611 3.408-7.611 7.611v33.374c2.517.161 5.054.252 7.611.252 2.558 0 5.094-.091 7.612-.252v-33.374c-.001-4.203-3.408-7.611-7.612-7.611z"/><path d="m344.677 202.963-23.599-23.599c-2.972-2.972-7.792-2.972-10.764 0-2.973 2.972-2.973 7.792 0 10.764l23.599 23.599c3.815-3.353 7.411-6.949 10.764-10.764z"/><path d="m333.913 36.88-23.599 23.599c-2.973 2.972-2.973 7.792 0 10.764 1.486 1.486 3.434 2.229 5.382 2.229s3.896-.743 5.382-2.229l23.599-23.599c-3.353-3.815-6.949-7.411-10.764-10.764z"/><path d="m373.692 117.692h-33.374c-4.204 0-7.611 3.408-7.611 7.611 0 4.204 3.408 7.611 7.611 7.611h33.374c.161-2.517.252-5.054.252-7.612 0-2.556-.091-5.092-.252-7.61z"/></g><circle cx="256.254" cy="125.304" fill="#ffb54c" r="84.064"/><path d="m256.254 117.692c-6.928 0-12.564-5.636-12.564-12.564s5.636-12.564 12.564-12.564 12.564 5.636 12.564 12.564c0 4.204 3.408 7.611 7.611 7.611 4.204 0 7.612-3.408 7.612-7.611 0-12.682-8.544-23.4-20.175-26.718v-3.545c0-4.204-3.408-7.612-7.612-7.612s-7.611 3.408-7.611 7.612v3.545c-11.632 3.319-20.176 14.036-20.176 26.718 0 15.322 12.465 27.787 27.787 27.787 6.928 0 12.564 5.636 12.564 12.564s-5.636 12.564-12.564 12.564-12.564-5.636-12.564-12.564c0-4.204-3.408-7.611-7.611-7.611-4.204 0-7.611 3.408-7.611 7.611 0 12.682 8.544 23.4 20.176 26.718v3.545c0 4.204 3.408 7.612 7.611 7.612 4.204 0 7.612-3.408 7.612-7.612v-3.545c11.632-3.319 20.175-14.036 20.175-26.718-.001-15.322-12.467-27.787-27.788-27.787z" fill="#ffe278"/><path d="m256.254 41.239c-3.962 0-7.854.295-11.671.825 40.9 5.684 72.394 40.775 72.394 83.24s-31.493 77.556-72.394 83.24c3.816.53 7.708.825 11.671.825 46.427 0 84.064-37.637 84.064-84.064 0-46.429-37.637-84.066-84.064-84.066z" fill="#ff9959"/></g><g fill="#ff776b"><path d="m349.021 377.497h-23.342c4.484 0 8.119 3.635 8.119 8.119v17.388c0 4.484-3.635 8.119-8.119 8.119h23.342c4.484 0 8.119-3.635 8.119-8.119v-17.388c0-4.484-3.635-8.119-8.119-8.119z"/><path d="m334.656 485.986 1.153-15.223h-159.092l1.153 15.223z"/></g></g></svg>