<svg id="Capa_1" enable-background="new 0 0 512 512" height="512" viewBox="0 0 512 512" width="512" xmlns="http://www.w3.org/2000/svg"><g><g><g><path d="m51.2 162.133c-18.851 0-34.132 15.282-34.132 34.132l-.001 252.619h477.869l-.002-252.619c0-18.851-15.281-34.132-34.132-34.132z" fill="#587aa1"/><path d="m51.199 448.884v-235.55c0-9.426 7.641-17.067 17.067-17.067h375.47c9.426 0 17.067 7.641 17.067 17.067v235.55z" fill="#45c5ff"/><path d="m494.933 196.265c0-18.851-15.281-34.132-34.132-34.132h-23.694c18.851 0 34.132 15.282 34.132 34.132l.002 252.619h23.694z" fill="#455f80"/><path d="m443.735 196.267h-23.696c9.426 0 17.067 7.641 17.067 17.067v235.55h23.696v-235.55c0-9.426-7.641-17.067-17.067-17.067z" fill="#0ca8ed"/></g><path d="m505.598 443.733h-499.196c-3.535 0-6.4 2.865-6.4 6.4v27.734c0 18.851 15.281 34.133 34.132 34.133h9.34l7.726-4.083 7.726 4.083h18.685l7.726-4.083 7.726 4.083h18.685l7.726-4.083 7.726 4.083h350.665c18.851 0 34.133-15.282 34.133-34.132v-27.734c0-3.535-2.865-6.401-6.4-6.401z" fill="#f4fbff"/><g fill="#bfebff"><path d="m505.598 443.733h-23.694c3.535 0 6.4 2.865 6.4 6.4v27.734c0 18.851-15.282 34.132-34.132 34.132h23.694c18.851 0 34.133-15.282 34.133-34.132v-27.734c-.001-3.534-2.866-6.4-6.401-6.4z"/><path d="m294.402 463.066c-1.041 4.166-4.766 7.075-9.06 7.075h-58.683c-4.294 0-8.02-2.909-9.061-7.075l-4.833-19.333h-15.683c.001.619.067 1.246.223 1.873l5.302 21.207c2.764 11.057 12.655 18.78 24.052 18.78h58.683c11.397 0 21.288-7.723 24.052-18.78l5.302-21.207c.157-.627.223-1.254.223-1.873h-15.684z"/><path d="m443.733 470.14h-68.267c-13.671 0-24.794 11.122-24.794 24.793v17.067h15.453v-17.066c0-5.15 4.19-9.341 9.341-9.341h68.267c5.15 0 9.34 4.19 9.34 9.341v17.066h15.453v-17.066c0-13.671-11.122-24.794-24.793-24.794z"/></g><path d="m51.2 487.207c-4.267 0-7.726 3.459-7.726 7.726v17.067h15.453v-17.066c-.001-4.268-3.46-7.727-7.727-7.727z" fill="#587aa1"/><path d="m85.333 487.207c-4.267 0-7.726 3.459-7.726 7.726v17.067h15.453v-17.066c0-4.268-3.459-7.727-7.727-7.727z" fill="#587aa1"/><path d="m119.467 487.207c-4.267 0-7.726 3.459-7.726 7.726v17.067h15.453v-17.066c-.001-4.268-3.46-7.727-7.727-7.727z" fill="#587aa1"/></g><g><g><g fill="#587aa1"><path d="m256 229.794-102.406 43.274c0 18.851 15.282 34.133 34.133 34.133h136.541c18.851 0 34.133-15.282 34.133-34.133z"/><path d="m358.401 51.202v-17.069c0-18.851-15.282-34.133-34.133-34.133h-136.541c-18.851 0-34.133 15.282-34.133 34.133v17.068l101.903 51.2z"/></g><g fill="#455f80"><path d="m334.704 34.133v28.859l23.695-11.79v-17.069c.001-18.851-15.281-34.133-34.132-34.133h-23.695c18.85 0 34.132 15.282 34.132 34.133z"/><path d="m334.706 263.103v9.964c0 18.851-15.282 34.133-34.133 34.133h23.695c18.851 0 34.133-15.282 34.133-34.133z"/></g><path d="m153.594 273.068h204.808l-.002-221.866h-32.624c-5.847 0-11.192 3.303-13.807 8.533-2.615 5.23-7.96 8.533-13.807 8.533h-84.329c-5.847 0-11.192-3.304-13.807-8.534-2.615-5.23-7.96-8.534-13.807-8.534h-32.626v221.868z" fill="#85d9ff"/><g><path d="m246.962 41.859h-25.6c-4.268 0-7.726-3.459-7.726-7.726s3.459-7.726 7.726-7.726h25.6c4.268 0 7.726 3.459 7.726 7.726s-3.458 7.726-7.726 7.726z" fill="#f4fbff"/></g><g><path d="m289.629 41.859h-8.533c-4.268 0-7.726-3.459-7.726-7.726s3.459-7.726 7.726-7.726h8.533c4.268 0 7.726 3.459 7.726 7.726s-3.458 7.726-7.726 7.726z" fill="#ffcc4a"/></g><g><g><g><path d="m334.704 51.202h23.695v221.865h-23.695z" fill="#45c5ff"/></g></g></g></g><path d="m255.497 162.941c-7.033 0-12.754-5.721-12.754-12.754 0-7.032 5.721-12.753 12.754-12.753 7.032 0 12.754 5.721 12.754 12.753 0 4.267 3.459 7.726 7.726 7.726 4.268 0 7.726-3.459 7.726-7.726 0-12.874-8.673-23.753-20.48-27.122v-3.598c0-4.267-3.459-7.726-7.726-7.726-4.268 0-7.726 3.459-7.726 7.726v3.598c-11.808 3.369-20.481 14.248-20.481 27.122 0 15.553 12.654 28.206 28.207 28.206 7.032 0 12.754 5.721 12.754 12.754s-5.721 12.753-12.754 12.753-12.754-5.721-12.754-12.753c0-4.267-3.459-7.726-7.726-7.726-4.268 0-7.726 3.459-7.726 7.726 0 12.874 8.673 23.753 20.481 27.122v3.599c0 4.267 3.459 7.726 7.726 7.726 4.268 0 7.726-3.459 7.726-7.726v-3.599c11.807-3.369 20.48-14.248 20.48-27.122-.001-15.553-12.654-28.206-28.207-28.206z" fill="#f4fbff"/></g><g><path d="m273.067 264.534v91.998c0 2.356 1.91 4.267 4.267 4.267h12.224c3.617 0 5.594 4.219 3.278 6.998l-33.557 40.269c-1.706 2.047-4.85 2.047-6.555 0l-33.557-40.269c-2.316-2.779-.34-6.998 3.278-6.998h12.224c2.356 0 4.267-1.91 4.267-4.267v-91.998c0-4.713 3.82-8.533 8.533-8.533h17.067c4.711-.001 8.531 3.82 8.531 8.533z" fill="#ff4f75"/><path d="m292.835 367.797-33.557 40.269c-1.706 2.047-4.85 2.047-6.555 0l-8.569-10.283 24.988-29.985c2.316-2.779.34-6.998-3.278-6.998h-12.224c-2.356 0-4.267-1.91-4.267-4.267v-91.998c0-3.538-2.153-6.572-5.22-7.866 1.019-.43 2.139-.668 3.314-.668h17.067c4.713 0 8.533 3.82 8.533 8.533v91.998c0 2.356 1.91 4.267 4.267 4.267h12.224c3.617-.001 5.593 4.219 3.277 6.998z" fill="#f71e78"/></g></g></svg>