<svg id="Capa_1" enable-background="new 0 0 512 512" height="512" viewBox="0 0 512 512" width="512" xmlns="http://www.w3.org/2000/svg"><g><g><ellipse cx="256" cy="151.316" fill="#f4fbff" rx="151.316" ry="151.316" transform="matrix(.707 -.707 .707 .707 -32.016 225.339)"/><path d="m256 0c-3.927 0-7.819.15-11.671.444 78.116 5.959 139.645 71.23 139.645 150.872s-61.529 144.914-139.645 150.872c3.852.294 7.744.444 11.671.444 83.57 0 151.316-67.747 151.316-151.316s-67.746-151.316-151.316-151.316z" fill="#bfebff"/><ellipse cx="256" cy="151.316" fill="#85d9ff" rx="117.69" ry="117.69" transform="matrix(.707 -.707 .707 .707 -32.016 225.339)"/><path d="m256 33.626c-3.95 0-7.854.198-11.704.578 59.503 5.875 105.986 56.064 105.986 117.112s-46.483 111.237-105.986 117.112c3.85.38 7.754.579 11.704.579 64.999 0 117.691-52.692 117.691-117.69 0-65-52.692-117.691-117.691-117.691z" fill="#45c5ff"/><g fill="#0ca8ed"><g><path d="m290.72 65.938c10.649 22.678 16.513 52.999 16.513 85.377 0 32.379-5.864 62.701-16.513 85.378-9.408 20.036-21.677 31.733-33.797 32.301 12.398-.096 24.338-2.108 35.541-5.756 4.366-5.636 8.406-12.345 12.035-20.075 11.58-24.66 17.957-57.279 17.957-91.848s-6.378-67.187-17.957-91.848c-3.63-7.73-7.669-14.438-12.035-20.074-11.19-3.643-23.115-5.655-35.498-5.755 12.107.594 24.358 12.287 33.754 32.3z"/><path d="m221.28 236.694c-10.649-22.678-16.513-53-16.513-85.378s5.865-62.699 16.513-85.377c9.397-20.013 21.648-31.707 33.753-32.3-12.382.1-24.307 2.112-35.497 5.755-4.365 5.636-8.405 12.345-12.035 20.074-11.58 24.661-17.957 57.279-17.957 91.848s6.377 67.188 17.957 91.848c3.63 7.73 7.67 14.439 12.036 20.075 11.203 3.648 23.143 5.66 35.541 5.756-12.121-.568-24.39-12.265-33.798-32.301z"/></g><path d="m164.575 79.501c23.416 13.079 56.739 20.581 91.425 20.581 34.685 0 68.008-7.502 91.425-20.581.428-.239.821-.516 1.183-.82-3.199-4.073-6.666-7.924-10.366-11.539-21.134 11.266-50.941 17.717-82.242 17.717s-61.109-6.451-82.242-17.717c-3.699 3.615-7.167 7.466-10.366 11.539.362.304.755.581 1.183.82z"/><path d="m138.309 151.316c0 2.558.091 5.094.252 7.611h234.878c.161-2.517.252-5.053.252-7.611s-.091-5.095-.252-7.612h-234.878c-.161 2.518-.252 5.054-.252 7.612z"/><path d="m347.425 223.131c-23.416-13.08-56.739-20.582-91.425-20.582s-68.009 7.501-91.425 20.582c-.428.239-.821.517-1.183.82 3.199 4.073 6.667 7.924 10.366 11.539 21.132-11.268 50.94-17.718 82.242-17.718s61.109 6.451 82.242 17.718c3.699-3.615 7.167-7.466 10.366-11.539-.362-.303-.755-.581-1.183-.82z"/></g></g><g><g><path d="m87.871 394.308h-33.626c-4.204 0-7.611-3.407-7.611-7.611s3.408-7.611 7.611-7.611h33.626c4.204 0 7.611 3.407 7.611 7.611s-3.407 7.611-7.611 7.611z" fill="#b0d16f"/></g><g><path d="m85.787 512c-2.63 0-5.189-1.365-6.599-3.807-2.102-3.64-.854-8.295 2.786-10.397l29.121-16.813c3.64-2.1 8.295-.855 10.397 2.786 2.102 3.64.854 8.295-2.786 10.397l-29.121 16.813c-1.198.692-2.507 1.021-3.798 1.021z" fill="#b0d16f"/></g><g><path d="m426.213 512c-1.291 0-2.599-.329-3.799-1.021l-29.121-16.813c-3.64-2.102-4.888-6.757-2.786-10.397 2.101-3.641 6.755-4.887 10.397-2.786l29.121 16.813c3.64 2.102 4.888 6.757 2.786 10.397-1.409 2.442-3.968 3.807-6.598 3.807z" fill="#b0d16f"/></g><g><path d="m457.755 394.308h-33.625c-4.204 0-7.612-3.407-7.612-7.611s3.407-7.611 7.612-7.611h33.625c4.204 0 7.611 3.407 7.611 7.611s-3.407 7.611-7.611 7.611z" fill="#b0d16f"/></g><g><path d="m397.106 293.433c-2.63 0-5.188-1.365-6.599-3.807-2.102-3.64-.854-8.295 2.786-10.397l29.121-16.814c3.638-2.101 8.295-.855 10.397 2.786 2.102 3.64.854 8.295-2.786 10.397l-29.121 16.814c-1.198.691-2.507 1.021-3.798 1.021z" fill="#b0d16f"/></g><g><path d="m114.894 293.433c-1.291 0-2.6-.329-3.799-1.021l-29.121-16.814c-3.641-2.102-4.888-6.757-2.786-10.397 2.102-3.641 6.757-4.888 10.397-2.786l29.121 16.814c3.641 2.102 4.888 6.757 2.786 10.397-1.41 2.442-3.968 3.807-6.598 3.807z" fill="#b0d16f"/></g></g><g><circle cx="256" cy="386.697" fill="#ffcc4a" r="117.69"/><path d="m256 269.007c-3.939 0-7.831.198-11.671.575 59.519 5.86 106.02 56.055 106.02 117.115s-46.5 111.255-106.02 117.115c3.839.378 7.732.575 11.671.575 64.999 0 117.691-52.692 117.691-117.69 0-64.999-52.692-117.69-117.691-117.69z" fill="#ffb54c"/><g fill="#ffe278"><path d="m256 269.007c-2.558 0-5.094.091-7.611.252v33.374c0 4.204 3.408 7.612 7.612 7.612s7.611-3.408 7.611-7.612v-33.374c-2.518-.162-5.054-.252-7.612-.252z"/><path d="m167.576 309.037 23.599 23.599c1.486 1.486 3.434 2.229 5.382 2.229s3.896-.743 5.382-2.229c2.973-2.972 2.973-7.792 0-10.764l-23.599-23.599c-3.815 3.354-7.41 6.949-10.764 10.764z"/><path d="m171.935 379.086h-33.374c-.161 2.517-.252 5.053-.252 7.611s.091 5.094.252 7.612h33.374c4.204 0 7.611-3.408 7.611-7.611.001-4.205-3.407-7.612-7.611-7.612z"/><path d="m191.175 440.757-23.599 23.599c3.353 3.815 6.949 7.411 10.764 10.764l23.599-23.599c2.973-2.972 2.973-7.792 0-10.764-2.972-2.972-7.792-2.972-10.764 0z"/><path d="m256 463.15c-4.204 0-7.612 3.408-7.612 7.611v33.374c2.517.161 5.054.252 7.611.252 2.558 0 5.094-.091 7.612-.252v-33.374c.001-4.203-3.407-7.611-7.611-7.611z"/><path d="m344.424 464.357-23.599-23.599c-2.972-2.972-7.792-2.972-10.764 0-2.973 2.972-2.973 7.792 0 10.764l23.599 23.599c3.815-3.354 7.41-6.949 10.764-10.764z"/><path d="m333.659 298.273-23.599 23.599c-2.973 2.972-2.973 7.792 0 10.764 1.486 1.486 3.434 2.229 5.382 2.229s3.896-.743 5.382-2.229l23.599-23.599c-3.353-3.815-6.949-7.41-10.764-10.764z"/><path d="m373.439 379.086h-33.374c-4.204 0-7.612 3.408-7.612 7.612s3.408 7.611 7.612 7.611h33.374c.161-2.517.252-5.054.252-7.612s-.091-5.094-.252-7.611z"/></g><circle cx="256" cy="386.697" fill="#ffb54c" r="84.065"/><path d="m256 379.086c-6.928 0-12.564-5.636-12.564-12.564s5.636-12.564 12.564-12.564 12.564 5.636 12.564 12.564c0 4.204 3.408 7.611 7.611 7.611s7.612-3.408 7.612-7.611c0-12.682-8.544-23.4-20.175-26.718v-3.545c0-4.204-3.408-7.611-7.611-7.611s-7.612 3.408-7.612 7.611v3.545c-11.632 3.319-20.176 14.036-20.176 26.718 0 15.322 12.465 27.787 27.787 27.787 6.928 0 12.564 5.636 12.564 12.564s-5.636 12.564-12.564 12.564-12.564-5.636-12.564-12.564c0-4.204-3.408-7.612-7.612-7.612s-7.611 3.408-7.611 7.612c0 12.682 8.544 23.4 20.176 26.718v3.545c0 4.204 3.408 7.612 7.612 7.612s7.611-3.408 7.611-7.612v-3.545c11.632-3.319 20.175-14.036 20.175-26.718 0-15.322-12.465-27.787-27.787-27.787z" fill="#ffe278"/><path d="m256 302.632c-3.963 0-7.855.295-11.671.825 40.9 5.684 72.394 40.775 72.394 83.24s-31.493 77.556-72.394 83.24c3.816.53 7.708.825 11.671.825 46.428 0 84.065-37.637 84.065-84.065s-37.637-84.065-84.065-84.065z" fill="#ff9959"/></g></g></svg>