<svg id="Capa_1" enable-background="new 0 0 512 512" height="512" viewBox="0 0 512 512" width="512" xmlns="http://www.w3.org/2000/svg"><g><g><g><path d="m51.2 162.133c-18.851 0-34.132 15.282-34.132 34.132l-.001 252.619h477.869l-.002-252.619c0-18.851-15.281-34.132-34.132-34.132z" fill="#587aa1"/><path d="m51.199 448.884v-235.55c0-9.426 7.641-17.067 17.067-17.067h375.47c9.426 0 17.067 7.641 17.067 17.067v235.55z" fill="#45c5ff"/><path d="m494.933 196.265c0-18.851-15.281-34.132-34.132-34.132h-23.694c18.851 0 34.132 15.282 34.132 34.132l.002 252.619h23.694z" fill="#455f80"/><path d="m443.735 196.267h-23.695c9.426 0 17.067 7.641 17.067 17.067v235.55h23.696v-235.55c-.001-9.426-7.642-17.067-17.068-17.067z" fill="#0ca8ed"/></g><path d="m505.598 443.733h-499.196c-3.535 0-6.4 2.865-6.4 6.4v27.734c0 18.851 15.281 34.133 34.132 34.133h9.34l7.726-4.083 7.726 4.083h18.685l7.726-4.083 7.727 4.083h18.685l7.726-4.083 7.726 4.083h350.665c18.851 0 34.132-15.282 34.132-34.132v-27.734c0-3.535-2.865-6.401-6.4-6.401z" fill="#f4fbff"/><g fill="#bfebff"><path d="m505.598 443.733h-23.694c3.535 0 6.4 2.865 6.4 6.4v27.734c0 18.851-15.282 34.132-34.133 34.132h23.694c18.851 0 34.133-15.282 34.133-34.132v-27.734c0-3.534-2.865-6.4-6.4-6.4z"/><path d="m294.402 463.066c-1.041 4.166-4.767 7.075-9.06 7.075h-58.683c-4.294 0-8.02-2.909-9.061-7.075l-4.833-19.333h-15.683c0 .619.066 1.246.223 1.873l5.302 21.207c2.764 11.057 12.655 18.78 24.052 18.78h58.683c11.397 0 21.288-7.723 24.052-18.78l5.302-21.207c.157-.627.223-1.255.223-1.873h-15.684z"/><path d="m443.733 470.14h-68.267c-13.671 0-24.794 11.122-24.794 24.793v17.067h15.453v-17.066c0-5.15 4.19-9.341 9.341-9.341h68.267c5.15 0 9.34 4.19 9.34 9.341v17.066h15.453v-17.066c0-13.671-11.121-24.794-24.793-24.794z"/></g><path d="m51.2 487.207c-4.267 0-7.726 3.459-7.726 7.726v17.067h15.453v-17.066c-.001-4.268-3.46-7.727-7.727-7.727z" fill="#587aa1"/><path d="m85.333 487.207c-4.267 0-7.726 3.459-7.726 7.726v17.067h15.453v-17.066c0-4.268-3.46-7.727-7.727-7.727z" fill="#587aa1"/><path d="m119.467 487.207c-4.267 0-7.726 3.459-7.726 7.726v17.067h15.453v-17.066c-.001-4.268-3.46-7.727-7.727-7.727z" fill="#587aa1"/></g><path d="m392.533 268.8v-53.699c0-3.801-4.596-5.705-7.284-3.017l-11.765 11.765c-1.666 1.666-4.368 1.666-6.034 0l-222.598-222.599c-1.666-1.666-4.368-1.666-6.034 0l-18.102 18.101c-1.666 1.666-1.666 4.368 0 6.034l222.599 222.599c1.666 1.666 1.666 4.368 0 6.034l-11.765 11.765c-2.688 2.688-.784 7.284 3.017 7.284h53.699c2.357 0 4.267-1.91 4.267-4.267z" fill="#f4fbff"/><g><g><circle cx="409.6" cy="85.333" fill="#ff4f75" r="85.333"/><path d="m409.6 0c-4.022 0-7.973.299-11.847.837 41.518 5.77 73.486 41.39 73.486 84.496s-31.968 78.726-73.486 84.496c3.874.538 7.825.837 11.847.837 47.128 0 85.333-38.205 85.333-85.333s-38.205-85.333-85.333-85.333z" fill="#f71e78"/><g><path d="m426.667 42.667v40.798c0 2.356 1.91 4.267 4.267 4.267h12.224c3.617 0 5.594 4.219 3.278 6.998l-33.557 40.269c-1.706 2.047-4.85 2.047-6.555 0l-33.559-40.269c-2.316-2.779-.34-6.998 3.278-6.998h12.224c2.356 0 4.267-1.91 4.267-4.267v-40.798c0-4.713 3.82-8.533 8.533-8.533h17.067c4.712-.001 8.533 3.82 8.533 8.533z" fill="#f4fbff"/><path d="m446.435 94.73-33.557 40.269c-1.706 2.047-4.85 2.047-6.555 0l-8.569-10.283 24.988-29.986c2.316-2.779.34-6.998-3.278-6.998h-12.224c-2.356 0-4.267-1.91-4.267-4.267v-40.798c0-3.537-2.153-6.572-5.22-7.866 1.019-.43 2.138-.668 3.314-.668h17.067c4.713 0 8.533 3.82 8.533 8.533v40.798c0 2.356 1.91 4.267 4.267 4.267h12.224c3.617 0 5.593 4.22 3.277 6.999z" fill="#bfebff"/></g></g></g><g><g fill="#ff4f75"><path d="m392.533 358.4h-68.267v-43.2c0-4.418 3.582-8 8-8h52.267c4.418 0 8 3.582 8 8z"/><path d="m187.732 357.714h-68.267v-213.18c0-4.418 3.582-8 8-8h52.267c4.418 0 8 3.582 8 8z"/><path d="m290.134 358.4h-68.267v-111.466c0-4.418 3.582-8 8-8h52.267c4.418 0 8 3.582 8 8z"/></g><path d="m179.491 136.533h-23.695c4.552 0 8.242 3.69 8.242 8.241v212.939h23.695v-212.938c-.001-4.552-3.691-8.242-8.242-8.242z" fill="#f71e78"/><path d="m281.892 238.934h-23.694c4.552 0 8.241 3.69 8.241 8.241v111.225h23.694v-111.225c.001-4.552-3.689-8.241-8.241-8.241z" fill="#f71e78"/><path d="m384.292 307.2h-23.694c4.552 0 8.242 3.69 8.242 8.241v42.959h23.694v-42.959c-.001-4.551-3.69-8.241-8.242-8.241z" fill="#f71e78"/><path d="m418.667 375.467h-325.334c-4.418 0-8-3.582-8-8v-18.133c0-4.418 3.582-8 8-8h325.334c4.418 0 8 3.582 8 8v18.133c0 4.418-3.582 8-8 8z" fill="#f4fbff"/><path d="m418.425 341.334h-23.694c4.552 0 8.241 3.69 8.241 8.241v17.651c0 4.552-3.69 8.241-8.241 8.241h23.694c4.552 0 8.241-3.69 8.241-8.241v-17.651c.001-4.552-3.689-8.241-8.241-8.241z" fill="#bfebff"/></g><path d="m385.25 212.084-11.765 11.765c-1.256 1.256-3.1 1.563-4.646.925v44.026c0 2.356-1.91 4.267-4.267 4.267h23.694c2.356 0 4.267-1.91 4.267-4.267v-53.699c0-3.801-4.596-5.705-7.283-3.017z" fill="#bfebff"/></g></svg>