<svg id="Capa_1" enable-background="new 0 0 512 512" height="512" viewBox="0 0 512 512" width="512" xmlns="http://www.w3.org/2000/svg"><g><path d="m511.389 256c0-9.286-7.527-16.813-16.813-16.813h-427.324l-33.626 134.504 33.626 134.504h427.324c9.285 0 16.813-7.528 16.813-16.813z" fill="#f4fbff"/><path d="m511.389 256c0-9.286-7.527-16.813-16.813-16.813h-23.342c9.285 0 16.813 7.528 16.813 16.813v235.381c0 9.285-7.527 16.813-16.813 16.813h23.342c9.285 0 16.813-7.528 16.813-16.813z" fill="#bfebff"/><g><g fill="#bfebff"><path d="m100.878 307.234c-4.204 0-7.612 3.407-7.612 7.612v16.813c0 4.204 3.407 7.611 7.612 7.611 4.204 0 7.611-3.407 7.611-7.611v-16.813c.001-4.205-3.406-7.612-7.611-7.612z"/><path d="m100.878 357.673c-4.204 0-7.612 3.407-7.612 7.612v16.813c0 4.204 3.407 7.611 7.612 7.611 4.204 0 7.611-3.407 7.611-7.611v-16.813c.001-4.204-3.406-7.612-7.611-7.612z"/><path d="m100.878 256.795c-4.204 0-7.612 3.407-7.612 7.612v16.813c0 4.204 3.407 7.611 7.612 7.611 4.204 0 7.611-3.407 7.611-7.611v-16.813c.001-4.205-3.406-7.612-7.611-7.612z"/><path d="m100.878 408.111c-4.204 0-7.612 3.407-7.612 7.612v16.814c0 4.204 3.407 7.611 7.612 7.611 4.204 0 7.611-3.407 7.611-7.611v-16.814c.001-4.205-3.406-7.612-7.611-7.612z"/><path d="m100.878 458.55c-4.204 0-7.612 3.407-7.612 7.612v16.814c0 4.204 3.407 7.611 7.612 7.611 4.204 0 7.611-3.407 7.611-7.611v-16.814c.001-4.205-3.406-7.612-7.611-7.612z"/></g></g><g><path d="m244.194 356.878h-84.878c-4.418 0-8-3.582-8-8v-17.626c0-4.418 3.582-8 8-8h84.878c4.418 0 8 3.582 8 8v17.626c0 4.418-3.581 8-8 8z" fill="#45c5ff"/><path d="m469.763 474.568h-91.878c-4.418 0-8-3.582-8-8v-17.626c0-4.418 3.582-8 8-8h91.878c4.418 0 8 3.582 8 8v17.626c0 4.419-3.582 8-8 8z" fill="#89c247"/><g><g><path d="m477.763 414.928h-326.447c-4.204 0-7.611-3.407-7.611-7.611s3.407-7.612 7.611-7.612h326.447c4.204 0 7.612 3.407 7.612 7.612 0 4.204-3.408 7.611-7.612 7.611z" fill="#587aa1"/></g></g><g><path d="m168.13 465.367h-16.814c-4.204 0-7.611-3.407-7.611-7.611s3.407-7.612 7.611-7.612h16.814c4.204 0 7.612 3.407 7.612 7.612 0 4.204-3.408 7.611-7.612 7.611z" fill="#587aa1"/></g><g><path d="m218.568 465.367h-16.813c-4.204 0-7.611-3.407-7.611-7.611s3.407-7.612 7.611-7.612h16.813c4.204 0 7.612 3.407 7.612 7.612 0 4.204-3.408 7.611-7.612 7.611z" fill="#587aa1"/></g><g><path d="m269.007 465.367h-16.813c-4.204 0-7.611-3.407-7.611-7.611s3.407-7.612 7.611-7.612h16.813c4.204 0 7.612 3.407 7.612 7.612 0 4.204-3.408 7.611-7.612 7.611z" fill="#587aa1"/></g><path d="m244.076 323.252h-23.342c4.484 0 8.119 3.635 8.119 8.119v17.388c0 4.484-3.635 8.119-8.119 8.119h23.342c4.484 0 8.119-3.635 8.119-8.119v-17.388c-.001-4.484-3.636-8.119-8.119-8.119z" fill="#0ca8ed"/><path d="m469.644 440.943h-30.342c4.484 0 8.119 3.635 8.119 8.119v17.388c0 4.484-3.635 8.119-8.119 8.119h30.342c4.484 0 8.119-3.635 8.119-8.119v-17.388c0-4.485-3.635-8.119-8.119-8.119z" fill="#67b83e"/></g><g><path d="m379.45 100.273-161.254 161.254c-1.846 1.846-3.236 4.096-4.062 6.572l-7.975 23.925c-1.095 3.286 2.031 6.412 5.317 5.317l23.925-7.975c2.476-.825 4.726-2.216 6.572-4.062l7.373-7.373 3.859-7.668 6.906-3.097 143.116-143.116z" fill="#587aa1"/><path d="m386.772 107.595-161.254 161.254c-1.846 1.846-4.096 3.236-6.572 4.062l-7.218 2.406-5.569 16.708c-1.095 3.286 2.031 6.412 5.317 5.317l23.925-7.975c2.476-.826 4.726-2.216 6.572-4.062l7.373-7.373 2.96-7.861 7.806-2.904 143.115-143.117z" fill="#455f80"/><path d="m451.718 68.921h40.815v33.626h-40.815z" fill="#455f80" transform="matrix(.707 .707 -.707 .707 198.906 -308.733)"/><g><g><path d="m403.336 190.995c-1.947 0-3.896-.743-5.383-2.229-2.972-2.973-2.972-7.792 0-10.765l101.053-101.052c2.973-2.971 7.792-2.971 10.765 0 2.972 2.973 2.972 7.792 0 10.765l-101.052 101.052c-1.487 1.486-3.435 2.229-5.383 2.229z" fill="#ffcc4a"/></g></g><path d="m450.89 16.945v-.001l-59.443 59.443 7.686 27.981 27.98 7.685 59.443-59.443-7.201-29.691z" fill="#587aa1"/><path d="m391.447 76.387-17.832 17.833c-3.283 3.283-3.283 8.606 0 11.889l23.777 23.777c3.283 3.283 8.606 3.283 11.889 0l17.833-17.833z" fill="#ffcc4a"/><path d="m475.636 22.139c2.32 8.456.166 17.884-6.478 24.527l-60.357 60.357 18.312 5.03 59.443-59.443-7.201-29.691z" fill="#455f80"/><path d="m415.442 100.382-17.861 17.862c-3.092 3.092-7.991 3.269-11.294.537l11.105 11.105c3.283 3.283 8.606 3.283 11.889 0l17.833-17.833z" fill="#ffb54c"/><path d="m486.556 52.61 5.944-5.944c9.734-9.733 9.847-25.444.342-35.317-9.806-10.186-26.411-9.944-36.409.053l-5.543 5.543z" fill="#ffcc4a"/><path d="m486.556 52.61 5.944-5.944c9.734-9.733 9.847-25.444.342-35.317-7.848-8.152-20.048-9.618-29.733-4.757 2.321 1.197 4.485 2.777 6.391 4.757 7.547 7.839 9.007 19.348 4.427 28.633z" fill="#ffb54c"/><g fill="#ffcc4a"><path d="m260.111 267.166-23.777-23.777-10.765 10.765 23.777 23.777z"/><path d="m355.22 124.504v-.001l-10.764 10.765 23.776 23.777 10.764-10.764z"/></g></g><path d="m420.324 315.64c-6.928 0-12.564-5.636-12.564-12.564s5.636-12.564 12.564-12.564 12.564 5.636 12.564 12.564c0 4.204 3.407 7.612 7.612 7.612s7.612-3.407 7.612-7.612c0-12.683-8.544-23.4-20.175-26.719v-3.545c0-4.204-3.407-7.612-7.612-7.612-4.204 0-7.611 3.407-7.611 7.612v3.545c-11.632 3.319-20.175 14.036-20.175 26.719 0 15.322 12.465 27.787 27.787 27.787 6.928 0 12.564 5.636 12.564 12.564s-5.636 12.564-12.564 12.564-12.564-5.636-12.564-12.564c0-4.204-3.407-7.612-7.612-7.612-4.204 0-7.611 3.407-7.611 7.612 0 12.683 8.544 23.4 20.175 26.719v3.545c0 4.204 3.407 7.611 7.611 7.611s7.612-3.407 7.612-7.611v-3.545c11.632-3.319 20.175-14.036 20.175-26.719-.001-15.322-12.466-27.787-27.788-27.787z" fill="#ffcc4a"/><path d="m16.813 239.187c-9.285 0-16.813 7.528-16.813 16.813v235.381c0 9.285 7.527 16.813 16.813 16.813h50.439v-269.007z" fill="#45c5ff"/></g></svg>