<svg id="Icons" height="512" viewBox="0 0 60 60" width="512" xmlns="http://www.w3.org/2000/svg"><path d="m11 49.64h-.01a2 2 0 0 1 -2.46-1.4l-7.459-26.989a2.006 2.006 0 0 1 1.4-2.46l42.409-11.72a2.006 2.006 0 0 1 2.46 1.4l3.46 12.529z" fill="#3b7ac8"/><path d="m49.56 16.5-16.28 4.5-22.28 6.16-7.71 2.13-1.26-4.57 9.14-2.53 4.32-1.19 32.81-9.07z" fill="#244766"/><rect fill="#89d461" height="32" rx="2" width="48" x="11" y="21"/><rect fill="#fbdd4d" height="7" rx="2" width="9" x="16" y="27"/><g fill="#507f32"><path d="m16 43a1 1 0 0 1 -1-1v-2a1 1 0 0 1 2 0v2a1 1 0 0 1 -1 1z"/><path d="m20 43a1 1 0 0 1 -1-1v-2a1 1 0 0 1 2 0v2a1 1 0 0 1 -1 1z"/><path d="m24 43a1 1 0 0 1 -1-1v-2a1 1 0 0 1 2 0v2a1 1 0 0 1 -1 1z"/><path d="m30 43a1 1 0 0 1 -1-1v-2a1 1 0 0 1 2 0v2a1 1 0 0 1 -1 1z"/><path d="m34 43a1 1 0 0 1 -1-1v-2a1 1 0 0 1 2 0v2a1 1 0 0 1 -1 1z"/><path d="m38 43a1 1 0 0 1 -1-1v-2a1 1 0 0 1 2 0v2a1 1 0 0 1 -1 1z"/><path d="m44 43a1 1 0 0 1 -1-1v-2a1 1 0 0 1 2 0v2a1 1 0 0 1 -1 1z"/><path d="m48 43a1 1 0 0 1 -1-1v-2a1 1 0 0 1 2 0v2a1 1 0 0 1 -1 1z"/><path d="m52 43a1 1 0 0 1 -1-1v-2a1 1 0 0 1 2 0v2a1 1 0 0 1 -1 1z"/><path d="m24 48h-8a1 1 0 0 1 0-2h8a1 1 0 0 1 0 2z"/><path d="m38 48h-8a1 1 0 0 1 0-2h8a1 1 0 0 1 0 2z"/></g></svg>