<svg id="Capa_1" enable-background="new 0 0 512 512" height="512" viewBox="0 0 512 512" width="512" xmlns="http://www.w3.org/2000/svg"><g><g><g><path d="m290.133 460.8h85.333c9.426 0 17.067-7.641 17.067-17.067v-426.666c0-9.426-7.641-17.067-17.066-17.067h-290.134c-9.426 0-17.067 7.641-17.067 17.067v34.133z" fill="#e5f7ff"/><path d="m375.467 460.8h-23.693c9.426 0 17.067-7.641 17.067-17.067v-426.666c-.001-9.426-7.642-17.067-17.067-17.067h23.693c9.426 0 17.067 7.641 17.067 17.067v426.667c-.001 9.425-7.642 17.066-17.067 17.066z" fill="#bfebff"/></g><path d="m358.4 136.533v341.333c0 9.426-7.641 17.067-17.067 17.067h-307.2c-9.426 0-17.067-7.641-17.067-17.067v-426.666c0-9.426 7.641-17.067 17.067-17.067h221.867z" fill="#f4fbff"/><path d="m358.4 136.533h-85.333c-9.426 0-17.067-7.641-17.067-17.067v-85.333z" fill="#bfebff"/><path d="m334.706 112.839v365.028c0 9.426-7.641 17.067-17.067 17.067h23.694c9.426 0 17.067-7.641 17.067-17.067v-341.334z" fill="#bfebff"/><g><path d="m239.415 204.8h-171.682c-4.418 0-8-3.582-8-8v-18.133c0-4.418 3.582-8 8-8h171.682c4.418 0 8 3.582 8 8v18.133c0 4.418-3.582 8-8 8z" fill="#587aa1"/><path d="m307.682 204.8h-18.133c-4.418 0-8-3.582-8-8v-18.133c0-4.418 3.582-8 8-8h18.133c4.418 0 8 3.582 8 8v18.133c0 4.418-3.582 8-8 8z" fill="#b0d16f"/><path d="m307.44 170.667h-17.65c-1.068 0-2.085.21-3.022.579 3.055 1.206 5.22 4.178 5.22 7.662v17.65c0 3.484-2.165 6.456-5.22 7.662.936.37 1.954.58 3.022.58h17.651c4.552 0 8.241-3.69 8.241-8.241v-17.65c0-4.552-3.69-8.242-8.242-8.242z" fill="#89c247"/><path d="m239.174 170.667h-23.694c4.552 0 8.241 3.69 8.241 8.241v17.65c0 4.552-3.69 8.241-8.241 8.241h23.694c4.552 0 8.242-3.69 8.242-8.241v-17.65c-.001-4.551-3.691-8.241-8.242-8.241z" fill="#455f80"/></g><g><path d="m239.415 273.067h-171.682c-4.418 0-8-3.582-8-8v-18.133c0-4.418 3.582-8 8-8h171.682c4.418 0 8 3.582 8 8v18.133c0 4.418-3.582 8-8 8z" fill="#587aa1"/><path d="m307.682 273.067h-18.133c-4.418 0-8-3.582-8-8v-18.133c0-4.418 3.582-8 8-8h18.133c4.418 0 8 3.582 8 8v18.133c0 4.418-3.582 8-8 8z" fill="#b0d16f"/><path d="m307.44 238.933h-17.65c-1.068 0-2.085.21-3.022.58 3.055 1.206 5.22 4.178 5.22 7.662v17.65c0 3.484-2.165 6.456-5.22 7.662.936.37 1.954.579 3.022.579h17.651c4.552 0 8.241-3.69 8.241-8.241v-17.65c0-4.552-3.69-8.242-8.242-8.242z" fill="#89c247"/><path d="m239.174 238.933h-23.694c4.552 0 8.241 3.69 8.241 8.241v17.65c0 4.552-3.69 8.241-8.241 8.241h23.694c4.552 0 8.242-3.69 8.242-8.241v-17.65c-.001-4.551-3.691-8.241-8.242-8.241z" fill="#455f80"/></g><g><path d="m239.415 341.333h-171.682c-4.418 0-8-3.582-8-8v-18.133c0-4.418 3.582-8 8-8h171.682c4.418 0 8 3.582 8 8v18.133c0 4.419-3.582 8-8 8z" fill="#587aa1"/><path d="m307.682 341.333h-18.133c-4.418 0-8-3.582-8-8v-18.133c0-4.418 3.582-8 8-8h18.133c4.418 0 8 3.582 8 8v18.133c0 4.419-3.582 8-8 8z" fill="#b0d16f"/><path d="m307.44 307.2h-17.65c-1.068 0-2.085.21-3.022.58 3.055 1.206 5.22 4.178 5.22 7.662v17.65c0 3.484-2.165 6.456-5.22 7.662.936.37 1.954.58 3.022.58h17.651c4.552 0 8.241-3.69 8.241-8.241v-17.65c0-4.553-3.69-8.243-8.242-8.243z" fill="#89c247"/><path d="m239.174 307.2h-23.694c4.552 0 8.241 3.69 8.241 8.241v17.65c0 4.552-3.69 8.241-8.241 8.241h23.694c4.552 0 8.242-3.69 8.242-8.241v-17.65c-.001-4.551-3.691-8.241-8.242-8.241z" fill="#455f80"/></g><g><path d="m239.415 409.6h-171.682c-4.418 0-8-3.582-8-8v-18.133c0-4.418 3.582-8 8-8h171.682c4.418 0 8 3.582 8 8v18.133c0 4.418-3.582 8-8 8z" fill="#587aa1"/><path d="m307.682 409.6h-18.133c-4.418 0-8-3.582-8-8v-18.133c0-4.418 3.582-8 8-8h18.133c4.418 0 8 3.582 8 8v18.133c0 4.418-3.582 8-8 8z" fill="#b0d16f"/><path d="m307.44 375.467h-17.65c-1.068 0-2.085.21-3.022.579 3.055 1.206 5.22 4.178 5.22 7.662v17.651c0 3.484-2.165 6.456-5.22 7.662.936.37 1.954.58 3.022.58h17.651c4.552 0 8.241-3.69 8.241-8.241v-17.651c0-4.553-3.69-8.242-8.242-8.242z" fill="#89c247"/><path d="m239.174 375.467h-23.694c4.552 0 8.241 3.69 8.241 8.241v17.651c0 4.551-3.69 8.241-8.241 8.241h23.694c4.552 0 8.242-3.69 8.242-8.241v-17.651c-.001-4.552-3.691-8.241-8.242-8.241z" fill="#455f80"/></g><path d="m120 102.4h-52.267c-4.418 0-8-3.582-8-8v-18.133c0-4.418 3.582-8 8-8h52.267c4.418 0 8 3.582 8 8v18.133c0 4.418-3.582 8-8 8z" fill="#45c5ff"/><path d="m119.759 68.267h-23.695c4.552 0 8.241 3.69 8.241 8.241v17.65c0 4.552-3.69 8.241-8.241 8.241h23.694c4.552 0 8.241-3.69 8.241-8.241v-17.65c.001-4.552-3.689-8.241-8.24-8.241z" fill="#0ca8ed"/></g><g><path d="m478.933 512h-155.733c-8.837 0-16-7.163-16-16v-241.067c0-8.837 7.163-16 16-16h155.733c8.837 0 16 7.163 16 16v241.067c0 8.837-7.163 16-16 16z" fill="#587aa1"/><path d="m452.8 324.267h-103.467c-4.418 0-8-3.582-8-8v-35.2c0-4.418 3.582-8 8-8h103.467c4.418 0 8 3.582 8 8v35.2c0 4.418-3.582 8-8 8z" fill="#89c247"/><g fill="#f4fbff"><path d="m376 401.067h-26.667c-4.418 0-8-3.582-8-8v-26.667c0-4.418 3.582-8 8-8h26.667c4.418 0 8 3.582 8 8v26.667c0 4.418-3.582 8-8 8z"/><path d="m452.8 401.067h-26.667c-4.418 0-8-3.582-8-8v-26.667c0-4.418 3.582-8 8-8h26.667c4.418 0 8 3.582 8 8v26.667c0 4.418-3.582 8-8 8z"/><path d="m376 477.867h-26.667c-4.418 0-8-3.582-8-8v-26.667c0-4.418 3.582-8 8-8h26.667c4.418 0 8 3.582 8 8v26.667c0 4.418-3.582 8-8 8z"/><path d="m452.8 477.867h-26.667c-4.418 0-8-3.582-8-8v-26.667c0-4.418 3.582-8 8-8h26.667c4.418 0 8 3.582 8 8v26.667c0 4.418-3.582 8-8 8z"/></g><path d="m478.45 238.933h-23.667c9.103 0 16.483 7.38 16.483 16.483v240.101c0 9.103-7.38 16.483-16.483 16.483h23.667c9.103 0 16.483-7.38 16.483-16.483v-240.101c0-9.103-7.379-16.483-16.483-16.483z" fill="#455f80"/><path d="m452.559 273.067h-23.694c4.552 0 8.241 3.69 8.241 8.241v34.717c0 4.552-3.69 8.242-8.241 8.242h23.694c4.552 0 8.241-3.69 8.241-8.242v-34.717c0-4.551-3.69-8.241-8.241-8.241z" fill="#67b83e"/><path d="m452.559 358.4h-23.694c4.552 0 8.241 3.69 8.241 8.241v26.184c0 4.552-3.69 8.241-8.241 8.241h23.694c4.552 0 8.241-3.69 8.241-8.241v-26.184c0-4.551-3.69-8.241-8.241-8.241z" fill="#bfebff"/><path d="m452.559 435.2h-23.694c4.552 0 8.241 3.69 8.241 8.241v26.184c0 4.551-3.69 8.241-8.241 8.241h23.694c4.552 0 8.241-3.69 8.241-8.241v-26.184c0-4.551-3.69-8.241-8.241-8.241z" fill="#bfebff"/><path d="m375.759 358.4h-23.694c4.552 0 8.241 3.69 8.241 8.241v26.184c0 4.552-3.69 8.241-8.241 8.241h23.694c4.552 0 8.241-3.69 8.241-8.241v-26.184c0-4.551-3.69-8.241-8.241-8.241z" fill="#bfebff"/><path d="m375.759 435.2h-23.694c4.552 0 8.241 3.69 8.241 8.241v26.184c0 4.551-3.69 8.241-8.241 8.241h23.694c4.552 0 8.241-3.69 8.241-8.241v-26.184c0-4.551-3.69-8.241-8.241-8.241z" fill="#bfebff"/></g></g></svg>