<svg id="Capa_1" enable-background="new 0 0 512 512" height="512" viewBox="0 0 512 512" width="512" xmlns="http://www.w3.org/2000/svg"><g><path d="m460.8 469.247v34.219c0 4.713-3.82 8.533-8.533 8.533h-54.46c-3.232 0-6.187-1.826-7.632-4.717l-14.708-29.416v-8.619z" fill="#587aa1"/><path d="m437.106 469.247v34.219c0 4.713-3.821 8.533-8.533 8.533h23.694c4.713 0 8.533-3.82 8.533-8.533v-34.219z" fill="#455f80"/><path d="m51.2 469.247v34.219c0 4.713 3.82 8.533 8.533 8.533h54.46c3.232 0 6.187-1.826 7.632-4.717l14.708-29.416v-8.619z" fill="#587aa1"/><path d="m112.839 469.247v8.619l-14.708 29.416c-1.445 2.891-4.4 4.717-7.632 4.717h23.694c3.232 0 6.187-1.826 7.632-4.717l14.708-29.416v-8.619z" fill="#455f80"/><path d="m494.933 85.333c9.426 0 17.067 7.641 17.067 17.067v358.4c0 9.426-7.641 17.067-17.067 17.067h-477.866c-9.426 0-17.067-7.641-17.067-17.067v-358.4c0-9.426 7.641-17.067 17.067-17.067z" fill="#abd5ed"/><path d="m494.933 85.333h-23.694c9.426 0 17.067 7.641 17.067 17.067v358.4c0 9.426-7.641 17.067-17.067 17.067h23.694c9.426 0 17.067-7.641 17.067-17.067v-358.4c0-9.426-7.641-17.067-17.067-17.067z" fill="#97bedb"/><g><g><path d="m452.267 451.46h-392.534c-8.965 0-16.26-7.294-16.26-16.26v-307.2c0-8.966 7.294-16.26 16.26-16.26h392.533c8.965 0 16.259 7.294 16.259 16.26v307.2c.001 8.965-7.293 16.26-16.258 16.26zm-392.534-324.267c-.445 0-.807.362-.807.807v307.2c0 .445.362.807.807.807h392.533c.445 0 .807-.362.807-.807v-307.2c0-.445-.362-.807-.807-.807z" fill="#97bedb"/></g><circle cx="358.4" cy="281.6" fill="#587aa1" r="68.267"/><g fill="#455f80"><path d="m400.887 228.186-23.815 23.815c-3.018 3.017-3.018 7.909 0 10.927 1.509 1.509 3.486 2.263 5.463 2.263s3.955-.755 5.463-2.263l23.815-23.815c-3.218-4.042-6.884-7.707-10.926-10.927z"/><path d="m304.986 239.113 23.818 23.818c1.509 1.509 3.486 2.263 5.463 2.263s3.955-.755 5.463-2.263c3.018-3.017 3.018-7.909 0-10.927l-23.818-23.818c-4.041 3.22-7.707 6.885-10.926 10.927z"/><path d="m328.801 300.273-23.815 23.815c3.219 4.042 6.885 7.707 10.927 10.927l23.815-23.815c3.018-3.017 3.018-7.909 0-10.926-3.018-3.018-7.91-3.018-10.927-.001z"/><path d="m411.814 324.088-23.815-23.815c-3.017-3.017-7.909-3.017-10.927 0s-3.018 7.909 0 10.926l23.815 23.815c4.042-3.219 7.708-6.885 10.927-10.926z"/></g><path d="m230.4 349.866c0 9.426-7.641 17.067-17.067 17.067h-85.333c-9.426 0-17.067-7.641-17.067-17.067v-136.533c0-9.426 7.641-17.067 17.067-17.067h102.4z" fill="#f4fbff"/><path d="m188.267 264.533h-35.2c-4.418 0-8-3.582-8-8v-18.133c0-4.418 3.582-8 8-8h35.2c4.418 0 8 3.582 8 8v18.133c0 4.419-3.582 8-8 8z" fill="#b0d16f"/><g><path d="m153.6 306.393h-8.533c-4.267 0-7.726-3.459-7.726-7.726s3.459-7.726 7.726-7.726h8.533c4.267 0 7.726 3.459 7.726 7.726s-3.459 7.726-7.726 7.726z" fill="#97bedb"/></g><g><path d="m196.267 306.393h-8.533c-4.267 0-7.726-3.459-7.726-7.726s3.459-7.726 7.726-7.726h8.533c4.267 0 7.726 3.459 7.726 7.726s-3.459 7.726-7.726 7.726z" fill="#97bedb"/></g><g><path d="m153.6 340.526h-8.533c-4.267 0-7.726-3.459-7.726-7.726s3.459-7.726 7.726-7.726h8.533c4.267 0 7.726 3.459 7.726 7.726s-3.459 7.726-7.726 7.726z" fill="#97bedb"/></g><g><path d="m196.267 340.526h-8.533c-4.267 0-7.726-3.459-7.726-7.726s3.459-7.726 7.726-7.726h8.533c4.267 0 7.726 3.459 7.726 7.726s-3.459 7.726-7.726 7.726z" fill="#97bedb"/></g><path d="m206.706 196.267v153.6c0 9.426-7.641 17.067-17.067 17.067h23.694c9.426 0 17.067-7.641 17.067-17.067v-153.6z" fill="#bfebff"/><path d="m358.4 213.333c-4.043 0-7.997.372-11.847 1.046 32.052 5.612 56.42 33.562 56.42 67.221 0 33.66-24.367 61.609-56.42 67.221 3.85.674 7.804 1.046 11.847 1.046 37.703 0 68.267-30.564 68.267-68.267s-30.564-68.267-68.267-68.267z" fill="#455f80"/><circle cx="358.4" cy="281.6" fill="#f4fbff" r="34.133"/><path d="m358.4 247.467c-4.166 0-8.156.749-11.847 2.115 13.011 4.816 22.286 17.333 22.286 32.018 0 14.686-9.275 27.202-22.286 32.018 3.691 1.366 7.681 2.115 11.847 2.115 18.851 0 34.133-15.282 34.133-34.133s-15.282-34.133-34.133-34.133z" fill="#bfebff"/><path d="m60.267 238.933h-18.134c-4.418 0-8-3.582-8-8v-52.267c0-4.418 3.582-8 8-8h18.133c4.418 0 8 3.582 8 8v52.267c.001 4.418-3.581 8-7.999 8z" fill="#587aa1"/><path d="m60.025 170.667h-17.65c-1.068 0-2.085.21-3.022.579 3.055 1.206 5.22 4.178 5.22 7.662v51.784c0 3.484-2.165 6.456-5.22 7.662.937.37 1.954.579 3.022.579h17.65c4.552 0 8.241-3.69 8.241-8.242v-51.784c.001-4.551-3.689-8.24-8.241-8.24z" fill="#455f80"/><path d="m34.133 212.526h34.134v-15.453h-34.134z" fill="#97bedb"/><path d="m60.267 392.533h-18.134c-4.418 0-8-3.582-8-8v-52.267c0-4.418 3.582-8 8-8h18.133c4.418 0 8 3.582 8 8v52.267c.001 4.419-3.581 8-7.999 8z" fill="#587aa1"/><path d="m60.025 324.267h-17.65c-1.068 0-2.085.21-3.022.579 3.055 1.206 5.22 4.178 5.22 7.662v51.784c0 3.484-2.165 6.456-5.22 7.662.937.37 1.954.579 3.022.579h17.65c4.552 0 8.241-3.69 8.241-8.241v-51.784c.001-4.552-3.689-8.241-8.241-8.241z" fill="#455f80"/><path d="m34.133 366.126h34.134v-15.452h-34.134z" fill="#97bedb"/></g><g><circle cx="256" cy="119.467" fill="#ffcc4a" r="119.467"/><path d="m256 0c-3.998 0-7.95.2-11.847.584 60.418 5.948 107.62 56.901 107.62 118.883s-47.202 112.934-107.62 118.882c3.898.384 7.849.584 11.847.584 65.98 0 119.467-53.487 119.467-119.467 0-65.979-53.487-119.466-119.467-119.466z" fill="#ffb54c"/><g fill="#ffe278"><path d="m256 0c-2.596 0-5.171.092-7.726.255v33.878c0 4.267 3.459 7.726 7.726 7.726s7.726-3.459 7.726-7.726v-33.878c-2.555-.163-5.13-.255-7.726-.255z"/><path d="m166.242 40.635 23.955 23.955c1.509 1.508 3.486 2.263 5.463 2.263s3.955-.755 5.463-2.263c3.018-3.017 3.018-7.91 0-10.927l-23.955-23.955c-3.872 3.404-7.522 7.054-10.926 10.927z"/><path d="m170.667 111.74h-33.878c-.163 2.555-.256 5.13-.256 7.726 0 2.597.092 5.171.256 7.727h33.878c4.267 0 7.726-3.459 7.726-7.726s-3.459-7.727-7.726-7.727z"/><path d="m190.197 174.343-23.955 23.955c3.404 3.873 7.054 7.523 10.926 10.927l23.955-23.955c3.018-3.017 3.018-7.909 0-10.927-3.017-3.017-7.909-3.017-10.926 0z"/><path d="m256 197.073c-4.267 0-7.726 3.459-7.726 7.726v33.878c2.555.163 5.13.256 7.726.256s5.171-.092 7.727-.256v-33.877c0-4.267-3.46-7.727-7.727-7.727z"/><path d="m345.758 198.298-23.955-23.955c-3.017-3.017-7.909-3.017-10.926 0-3.018 3.017-3.018 7.909 0 10.927l23.955 23.955c3.872-3.404 7.522-7.054 10.926-10.927z"/><path d="m334.831 29.708-23.955 23.955c-3.018 3.017-3.018 7.909 0 10.927 1.508 1.508 3.486 2.263 5.463 2.263s3.955-.755 5.463-2.263l23.955-23.955c-3.403-3.873-7.053-7.523-10.926-10.927z"/><path d="m375.211 111.74h-33.878c-4.267 0-7.726 3.459-7.726 7.726s3.459 7.726 7.726 7.726h33.878c.163-2.555.255-5.13.255-7.727.001-2.595-.092-5.169-.255-7.725z"/></g><circle cx="256" cy="119.467" fill="#ffb54c" r="85.333"/><path d="m256 111.74c-7.033 0-12.754-5.721-12.754-12.754 0-7.032 5.721-12.753 12.754-12.753 7.032 0 12.754 5.721 12.754 12.753 0 4.267 3.459 7.726 7.726 7.726s7.726-3.459 7.726-7.726c0-12.874-8.673-23.753-20.48-27.122v-3.598c0-4.267-3.459-7.726-7.726-7.726s-7.726 3.459-7.726 7.726v3.598c-11.807 3.369-20.48 14.248-20.48 27.122 0 15.553 12.653 28.207 28.207 28.207 7.032 0 12.754 5.721 12.754 12.754s-5.723 12.753-12.755 12.753c-7.033 0-12.754-5.721-12.754-12.753 0-4.267-3.459-7.726-7.726-7.726s-7.726 3.459-7.726 7.726c0 12.874 8.673 23.753 20.48 27.122v3.598c0 4.267 3.459 7.726 7.726 7.726s7.726-3.459 7.726-7.726v-3.598c11.807-3.369 20.48-14.248 20.48-27.122 0-15.553-12.653-28.207-28.206-28.207z" fill="#ffe278"/><path d="m256 34.133c-4.022 0-7.973.299-11.847.837 41.518 5.77 73.486 41.39 73.486 84.496s-31.968 78.726-73.486 84.496c3.874.538 7.825.837 11.847.837 47.128 0 85.333-38.205 85.333-85.333s-38.205-85.333-85.333-85.333z" fill="#ff9959"/></g></g></svg>