<svg id="Capa_1" enable-background="new 0 0 512 512" height="512" viewBox="0 0 512 512" width="512" xmlns="http://www.w3.org/2000/svg"><g><path d="m187.733 170.667c-18.867 0-37.015 3.069-53.982 8.722l-110.7 206.858v-.001c19.717 72.465 85.971 125.754 164.682 125.754 94.257 0 170.667-76.41 170.667-170.667s-76.41-170.666-170.667-170.666z" fill="#f4fbff"/><path d="m187.733 170.667c-3.988 0-7.941.148-11.86.417 88.722 6.092 158.807 79.981 158.807 170.25s-70.085 164.158-158.807 170.25c3.919.269 7.872.417 11.86.417 94.257-.001 170.667-76.411 170.667-170.668s-76.41-170.666-170.667-170.666z" fill="#bfebff"/><g><path d="m409.6 179.2v-101.997c0-2.356 1.91-4.267 4.267-4.267h25.178c4.169 0 6.257-5.041 3.309-7.989l-63.578-63.576c-1.827-1.828-4.79-1.828-6.618 0l-63.578 63.577c-2.948 2.948-.86 7.989 3.309 7.989h25.178c2.356 0 4.267 1.91 4.267 4.267v101.996c0 4.713 3.82 8.533 8.533 8.533h51.2c4.713 0 8.533-3.82 8.533-8.533z" fill="#b0d16f"/><g><g><g><path d="m385.067 179.2v-101.997c0-2.356 1.91-4.267 4.267-4.267h24.533c-2.356 0-4.267 1.91-4.267 4.267v101.997c0 4.713-3.82 8.533-8.533 8.533h-24.533c4.712 0 8.533-3.82 8.533-8.533z" fill="#89c247"/></g><g><path d="m439.044 72.937h-24.533c4.169 0 6.257-5.041 3.309-7.989l-54.62-54.62 8.958-8.958c1.827-1.827 4.79-1.827 6.618 0l63.578 63.577c2.948 2.949.86 7.99-3.31 7.99z" fill="#89c247"/></g></g></g></g><g><g><path d="m426.667 451.46h-136.533c-4.268 0-7.726-3.459-7.726-7.726s3.459-7.726 7.726-7.726h136.533c4.268 0 7.726 3.459 7.726 7.726s-3.458 7.726-7.726 7.726z" fill="#587aa1"/></g></g><g><ellipse cx="375.467" cy="238.933" fill="#ffcc4a" rx="119.467" ry="119.467" transform="matrix(.707 -.707 .707 .707 -58.98 335.477)"/><path d="m375.467 119.467c-3.998 0-7.95.201-11.847.584 60.418 5.948 107.62 56.901 107.62 118.883s-47.202 112.934-107.62 118.882c3.897.384 7.849.584 11.847.584 65.98 0 119.467-53.487 119.467-119.467s-53.488-119.466-119.467-119.466z" fill="#ffb54c"/><g fill="#ffe278"><path d="m375.467 119.467c-2.596 0-5.171.092-7.726.256v33.877c0 4.267 3.459 7.726 7.726 7.726s7.726-3.459 7.726-7.726v-33.878c-2.555-.163-5.13-.255-7.726-.255z"/><path d="m285.709 160.102 23.955 23.955c1.509 1.508 3.486 2.263 5.463 2.263s3.955-.755 5.463-2.263c3.018-3.017 3.018-7.91 0-10.927l-23.955-23.955c-3.873 3.404-7.523 7.054-10.926 10.927z"/><path d="m290.133 231.207h-33.878c-.163 2.555-.255 5.13-.255 7.726s.092 5.171.255 7.727h33.878c4.267 0 7.726-3.459 7.726-7.726.001-4.268-3.459-7.727-7.726-7.727z"/><path d="m309.664 293.81-23.955 23.955c3.404 3.873 7.054 7.523 10.927 10.927l23.955-23.955c3.018-3.017 3.018-7.909 0-10.927-3.018-3.017-7.91-3.017-10.927 0z"/><path d="m375.467 316.54c-4.267 0-7.726 3.459-7.726 7.726v33.878c2.555.163 5.13.256 7.726.256s5.171-.092 7.727-.256v-33.878c-.001-4.267-3.46-7.726-7.727-7.726z"/><path d="m465.225 317.765-23.955-23.955c-3.017-3.017-7.909-3.017-10.926 0-3.018 3.017-3.018 7.909 0 10.927l23.955 23.955c3.872-3.404 7.522-7.054 10.926-10.927z"/><path d="m454.298 149.175-23.955 23.955c-3.018 3.017-3.018 7.91 0 10.927 1.508 1.508 3.486 2.263 5.463 2.263s3.955-.755 5.463-2.263l23.955-23.955c-3.403-3.873-7.053-7.523-10.926-10.927z"/><path d="m494.678 231.207h-33.878c-4.267 0-7.726 3.459-7.726 7.726s3.459 7.726 7.726 7.726h33.878c.163-2.555.255-5.13.255-7.727s-.092-5.17-.255-7.725z"/></g><ellipse cx="375.467" cy="238.933" fill="#ffb54c" rx="85.333" ry="85.333" transform="matrix(.16 -.987 .987 .16 79.476 571.279)"/><path d="m375.467 231.207c-7.033 0-12.754-5.721-12.754-12.754 0-7.032 5.721-12.753 12.754-12.753 7.032 0 12.754 5.721 12.754 12.753 0 4.267 3.459 7.726 7.726 7.726s7.726-3.459 7.726-7.726c0-12.874-8.673-23.753-20.48-27.122v-3.598c0-4.267-3.459-7.726-7.726-7.726s-7.726 3.459-7.726 7.726v3.598c-11.807 3.369-20.48 14.248-20.48 27.122 0 15.553 12.653 28.207 28.207 28.207 7.032 0 12.754 5.721 12.754 12.753s-5.721 12.754-12.754 12.754-12.754-5.721-12.754-12.754c0-4.267-3.459-7.726-7.726-7.726s-7.726 3.459-7.726 7.726c0 12.874 8.673 23.753 20.48 27.122v3.598c0 4.267 3.459 7.726 7.726 7.726s7.726-3.459 7.726-7.726v-3.598c11.807-3.369 20.48-14.248 20.48-27.122-.001-15.553-12.654-28.206-28.207-28.206z" fill="#ffe278"/><path d="m375.467 153.6c-4.022 0-7.973.299-11.847.837 41.518 5.77 73.486 41.39 73.486 84.496s-31.968 78.726-73.486 84.496c3.874.538 7.825.837 11.847.837 47.128 0 85.333-38.205 85.333-85.333s-38.205-85.333-85.333-85.333z" fill="#ff9959"/></g><path d="m17.067 341.333c0 15.546 2.09 30.601 5.985 44.913l164.682-44.913-87.978-56.32-76.703 11.401c-3.895 14.314-5.986 29.371-5.986 44.919z" fill="#ff9959"/><path d="m133.752 179.388c-53.819 17.931-95.709 61.937-110.7 117.032l164.682 44.913z" fill="#45c5ff"/><path d="m77.333 119.467h-18.133c-4.418 0-8-3.582-8-8v-18.134c0-4.418 3.582-8 8-8h18.133c4.418 0 8 3.582 8 8v18.133c0 4.419-3.581 8.001-8 8.001z" fill="#f4fbff"/><g><g><path d="m68.267 263.726c-4.268 0-7.726-3.459-7.726-7.726v-136.533c0-4.268 3.459-7.726 7.726-7.726s7.726 3.459 7.726 7.726v136.533c0 4.268-3.459 7.726-7.726 7.726z" fill="#587aa1"/></g></g><path d="m77.092 85.333h-17.651c-1.068 0-2.085.21-3.022.58 3.055 1.206 5.22 4.178 5.22 7.662v17.65c0 3.484-2.164 6.456-5.22 7.662.937.37 1.954.579 3.022.579h17.651c4.552 0 8.241-3.69 8.241-8.242v-17.65c0-4.551-3.689-8.241-8.241-8.241z" fill="#bfebff"/><path d="m426.667 452.8v-18.133c0-4.418 3.582-8 8-8h18.133c4.418 0 8 3.582 8 8v18.133c0 4.418-3.582 8-8 8h-18.133c-4.419 0-8-3.582-8-8z" fill="#f4fbff"/><path d="m452.559 426.667h-17.65c-1.068 0-2.085.21-3.022.58 3.055 1.206 5.22 4.178 5.22 7.662v17.65c0 3.484-2.164 6.456-5.22 7.662.937.37 1.954.579 3.022.579h17.65c4.552 0 8.241-3.69 8.241-8.241v-17.65c0-4.552-3.69-8.242-8.241-8.242z" fill="#bfebff"/></g></svg>