<svg id="Capa_1" enable-background="new 0 0 512 512" height="512" viewBox="0 0 512 512" width="512" xmlns="http://www.w3.org/2000/svg"><g><g><path d="m273.064 0h-119.467v.001l-51.2 17.066-51.2-17.066v-.001h-17.064c-18.851 0-34.133 15.282-34.133 34.133v443.733c0 18.852 15.282 34.134 34.133 34.134h238.929c18.851 0 34.133-15.282 34.133-34.133v-1.727l.002-442.006c.001-18.852-15.281-34.134-34.133-34.134z" fill="#587aa1"/><path d="m273.066 290.132c0 9.426-7.641 17.068-17.068 17.068h-68.264c-9.426 0-17.068-7.641-17.068-17.068v-68.266c0-9.426 7.641-17.067 17.068-17.067h68.264c9.426 0 17.068 7.641 17.068 17.067z" fill="#f4fbff"/><path d="m255.998 204.799h-23.697c9.426 0 17.068 7.641 17.068 17.067v68.266c0 9.426-7.641 17.068-17.068 17.068h23.697c9.426 0 17.068-7.641 17.068-17.068v-68.266c0-9.426-7.642-17.067-17.068-17.067z" fill="#bfebff"/><path d="m136.533 290.132c0 9.426-7.641 17.068-17.068 17.068h-68.264c-9.426 0-17.067-7.641-17.067-17.068v-68.266c0-9.426 7.641-17.067 17.067-17.067h68.264c9.426 0 17.068 7.641 17.068 17.067z" fill="#f4fbff"/><path d="m119.465 204.799h-23.697c9.426 0 17.068 7.641 17.068 17.067v68.266c0 9.426-7.642 17.068-17.068 17.068h23.697c9.426 0 17.068-7.641 17.068-17.068v-68.266c0-9.426-7.641-17.067-17.068-17.067z" fill="#bfebff"/><path d="m273.066 426.667c0 9.426-7.641 17.068-17.068 17.068h-68.264c-9.426 0-17.068-7.641-17.068-17.068v-68.266c0-9.426 7.641-17.067 17.068-17.067h68.264c9.426 0 17.068 7.641 17.068 17.067z" fill="#f4fbff"/><path d="m255.998 341.333h-23.697c9.426 0 17.068 7.641 17.068 17.067v68.266c0 9.426-7.641 17.068-17.068 17.068h23.697c9.426 0 17.068-7.641 17.068-17.068v-68.266c0-9.425-7.642-17.067-17.068-17.067z" fill="#bfebff"/><path d="m136.533 426.667c0 9.426-7.641 17.068-17.068 17.068h-68.264c-9.426 0-17.067-7.641-17.067-17.068v-68.266c0-9.426 7.641-17.067 17.067-17.067h68.264c9.426 0 17.068 7.641 17.068 17.067z" fill="#f4fbff"/><path d="m119.465 341.333h-23.697c9.426 0 17.068 7.641 17.068 17.067v68.266c0 9.426-7.642 17.068-17.068 17.068h23.697c9.426 0 17.068-7.641 17.068-17.068v-68.266c0-9.425-7.641-17.067-17.068-17.067z" fill="#bfebff"/><path d="m264.531 153.601h-221.864c-4.713 0-8.533-3.82-8.533-8.533v-68.268c0-4.713 3.82-8.533 8.533-8.533h221.865c4.713 0 8.533 3.821 8.533 8.533v68.267c0 4.713-3.821 8.534-8.534 8.534z" fill="#89c247"/><g fill="#45c5ff"><path d="m153.597.001v25.599c0 4.713-3.82 8.533-8.533 8.533h-85.332c-4.713 0-8.533-3.821-8.533-8.533v-25.599z"/><path d="m102.401 248.274h-9.341v-9.34c0-4.268-3.459-7.726-7.726-7.726s-7.726 3.459-7.726 7.726v9.34h-9.34c-4.267 0-7.726 3.459-7.726 7.726s3.459 7.726 7.726 7.726h9.34v9.341c0 4.268 3.459 7.726 7.726 7.726s7.726-3.459 7.726-7.726v-9.341h9.341c4.267 0 7.726-3.459 7.726-7.726s-3.459-7.726-7.726-7.726z"/><path d="m96.261 392.534 6.605-6.605c3.018-3.018 3.018-7.91 0-10.928-3.017-3.016-7.91-3.016-10.927 0l-6.605 6.605-6.605-6.605c-3.017-3.016-7.91-3.016-10.927 0-3.018 3.018-3.018 7.909 0 10.928l6.604 6.605-6.604 6.605c-3.018 3.018-3.018 7.91 0 10.928 1.509 1.508 3.486 2.263 5.463 2.263s3.955-.754 5.463-2.263l6.605-6.605 6.605 6.605c1.509 1.508 3.486 2.263 5.463 2.263 1.978 0 3.955-.754 5.463-2.263 3.018-3.018 3.018-7.909 0-10.928z"/></g><g><path d="m238.933 263.726h-34.133c-4.267 0-7.726-3.459-7.726-7.726 0-4.268 3.459-7.726 7.726-7.726h34.133c4.267 0 7.726 3.459 7.726 7.726s-3.459 7.726-7.726 7.726z" fill="#45c5ff"/></g><g><path d="m204.799 417.327c-1.977 0-3.955-.755-5.463-2.263-3.018-3.018-3.018-7.909 0-10.928l34.133-34.134c3.017-3.016 7.909-3.016 10.926 0 3.018 3.018 3.018 7.909 0 10.928l-34.133 34.134c-1.508 1.508-3.485 2.263-5.463 2.263z" fill="#45c5ff"/></g><path d="m273.064 0h-23.694c18.852 0 34.134 15.282 34.133 34.134l-.002 442.006v1.727c0 18.851-15.282 34.133-34.133 34.133h23.694c18.851 0 34.133-15.282 34.133-34.133v-1.727l.002-442.006c.001-18.852-15.281-34.134-34.133-34.134z" fill="#455f80"/><path d="m264.531 68.267h-23.696c4.713 0 8.533 3.821 8.533 8.534v68.267c0 4.713-3.82 8.533-8.533 8.533h23.696c4.713 0 8.533-3.82 8.533-8.533v-68.268c.001-4.712-3.82-8.533-8.533-8.533z" fill="#67b83e"/><path d="m129.903.001v25.599c0 4.713-3.821 8.533-8.533 8.533h23.694c4.713 0 8.533-3.821 8.533-8.533v-25.599z" fill="#0ca8ed"/><path d="m127.193 512v-17.067c0-4.268-3.459-7.726-7.726-7.726s-7.726 3.459-7.726 7.726v17.067z" fill="#455f80"/><path d="m93.06 512v-17.067c0-4.268-3.459-7.726-7.726-7.726s-7.726 3.459-7.726 7.726v17.067z" fill="#455f80"/><path d="m58.928 512v-17.067c0-4.268-3.459-7.726-7.726-7.726s-7.726 3.459-7.726 7.726v17.067z" fill="#455f80"/></g><g><circle cx="392.533" cy="392.532" fill="#ffcc4a" r="119.467"/><path d="m392.533 273.065c-3.998 0-7.95.2-11.847.584 60.418 5.948 107.62 56.901 107.62 118.883 0 61.981-47.202 112.934-107.62 118.883 3.898.384 7.849.584 11.847.584 65.98 0 119.467-53.487 119.467-119.467s-53.487-119.467-119.467-119.467z" fill="#ffb54c"/><g fill="#ffe278"><path d="m392.533 273.065c-2.596 0-5.171.092-7.726.255v33.878c0 4.267 3.459 7.726 7.726 7.726s7.726-3.459 7.726-7.726v-33.878c-2.554-.163-5.129-.255-7.726-.255z"/><path d="m302.775 313.7 23.955 23.955c1.508 1.509 3.486 2.263 5.463 2.263s3.955-.755 5.463-2.263c3.018-3.017 3.018-7.909 0-10.927l-23.955-23.955c-3.872 3.404-7.522 7.054-10.926 10.927z"/><path d="m307.2 384.805h-33.878c-.163 2.555-.255 5.13-.255 7.726s.092 5.171.255 7.726h33.878c4.267 0 7.726-3.459 7.726-7.726 0-4.266-3.459-7.726-7.726-7.726z"/><path d="m326.73 447.408-23.955 23.955c3.404 3.873 7.054 7.523 10.927 10.926l23.955-23.955c3.018-3.017 3.018-7.91 0-10.927-3.017-3.016-7.91-3.016-10.927.001z"/><path d="m392.533 470.138c-4.267 0-7.726 3.459-7.726 7.726v33.878c2.555.163 5.13.255 7.726.255 2.597 0 5.171-.092 7.727-.255v-33.878c0-4.266-3.459-7.726-7.727-7.726z"/><path d="m482.292 471.363-23.955-23.955c-3.017-3.017-7.909-3.017-10.927 0s-3.018 7.91 0 10.927l23.955 23.955c3.873-3.404 7.523-7.054 10.927-10.927z"/><path d="m471.365 302.773-23.955 23.955c-3.018 3.017-3.018 7.909 0 10.927 1.509 1.509 3.486 2.263 5.463 2.263s3.955-.755 5.463-2.263l23.955-23.955c-3.403-3.873-7.053-7.523-10.926-10.927z"/><path d="m511.745 384.805h-33.878c-4.267 0-7.726 3.459-7.726 7.726s3.459 7.726 7.726 7.726h33.878c.163-2.555.255-5.13.255-7.726s-.092-5.17-.255-7.726z"/></g><circle cx="392.533" cy="392.532" fill="#ffb54c" r="85.333"/><path d="m392.533 384.805c-7.033 0-12.754-5.721-12.754-12.754 0-7.032 5.721-12.754 12.754-12.754 7.032 0 12.754 5.721 12.754 12.754 0 4.267 3.459 7.726 7.726 7.726s7.726-3.459 7.726-7.726c0-12.874-8.673-23.753-20.48-27.122v-3.598c0-4.267-3.459-7.726-7.726-7.726s-7.726 3.459-7.726 7.726v3.598c-11.807 3.369-20.48 14.248-20.48 27.122 0 15.553 12.653 28.207 28.207 28.207 7.032 0 12.754 5.721 12.754 12.754 0 7.032-5.721 12.753-12.754 12.753s-12.754-5.721-12.754-12.753c0-4.267-3.459-7.726-7.726-7.726s-7.726 3.459-7.726 7.726c0 12.874 8.673 23.753 20.48 27.122v3.598c0 4.267 3.459 7.726 7.726 7.726s7.726-3.459 7.726-7.726v-3.598c11.807-3.369 20.48-14.248 20.48-27.122 0-15.553-12.654-28.207-28.207-28.207z" fill="#ffe278"/><path d="m392.533 307.198c-4.022 0-7.973.299-11.847.837 41.518 5.77 73.486 41.39 73.486 84.496s-31.968 78.726-73.486 84.496c3.874.538 7.825.837 11.847.837 47.128 0 85.333-38.205 85.333-85.333.001-47.128-38.204-85.333-85.333-85.333z" fill="#ff9959"/></g></g></svg>