<svg id="Capa_1" enable-background="new 0 0 512 512" height="512" viewBox="0 0 512 512" width="512" xmlns="http://www.w3.org/2000/svg"><g><path d="m457.755 469.883v33.711c0 4.643-3.764 8.406-8.406 8.406h-53.65c-3.184 0-6.095-1.799-7.519-4.647l-14.489-28.979v-8.491z" fill="#587aa1"/><path d="m434.414 469.883v33.711c0 4.643-3.764 8.406-8.407 8.406h23.342c4.643 0 8.406-3.764 8.406-8.406v-33.711z" fill="#455f80"/><path d="m54.245 469.883v33.711c0 4.643 3.764 8.406 8.406 8.406h53.65c3.184 0 6.095-1.799 7.519-4.647l14.489-28.979v-8.491z" fill="#587aa1"/><path d="m114.967 469.883v8.491l-14.49 28.979c-1.424 2.848-4.335 4.647-7.519 4.647h23.342c3.184 0 6.095-1.799 7.519-4.647l14.489-28.979v-8.491z" fill="#455f80"/><g><g><g><path d="m356.871 75.881c-1.291 0-2.6-.329-3.799-1.021-3.64-2.102-4.888-6.757-2.786-10.397l16.813-29.121c2.1-3.64 6.754-4.889 10.397-2.786 3.64 2.102 4.888 6.757 2.786 10.397l-16.812 29.12c-1.41 2.442-3.969 3.808-6.599 3.808z" fill="#85d9ff"/></g><g><path d="m256 48.849c-4.204 0-7.611-3.408-7.611-7.611v-33.627c0-4.203 3.407-7.611 7.611-7.611s7.612 3.408 7.612 7.611v33.626c0 4.204-3.408 7.612-7.612 7.612z" fill="#85d9ff"/></g><g><path d="m155.129 75.881c-2.63 0-5.189-1.365-6.599-3.807l-16.813-29.121c-2.102-3.641-.854-8.296 2.786-10.397 3.639-2.102 8.296-.855 10.397 2.786l16.813 29.121c2.102 3.641.854 8.296-2.786 10.397-1.198.691-2.507 1.021-3.798 1.021z" fill="#85d9ff"/></g></g></g><path d="m491.381 91.676c9.286 0 16.813 7.527 16.813 16.813v353.072c0 9.286-7.527 16.813-16.813 16.813h-470.762c-9.286 0-16.813-7.527-16.813-16.813v-353.072c0-9.285 7.527-16.813 16.813-16.813z" fill="#abd5ed"/><path d="m256 419.529 201.755-25.219v-260.602c0-4.643-3.764-8.407-8.406-8.407h-386.698c-4.643 0-8.407 3.764-8.407 8.407v260.601z" fill="#587aa1"/><g><g><path d="m303.313 237.389h-94.626c-5.7 0-9.747-5.552-8.003-10.979l17.94-55.814c2.235-6.953 8.703-11.668 16.006-11.668h42.74c7.303 0 13.772 4.715 16.006 11.668l17.94 55.814c1.745 5.426-2.303 10.979-8.003 10.979z" fill="#ffcc4a"/><path d="m311.316 226.41-17.94-55.813c-2.235-6.953-8.703-11.668-16.007-11.668h-23.342c7.303 0 13.771 4.715 16.006 11.668l17.94 55.813c1.744 5.427-2.303 10.979-8.003 10.979h23.342c5.701 0 9.749-5.553 8.004-10.979z" fill="#ffb54c"/><path d="m203.715 216.978h104.57l-4.893-15.223h-94.784z" fill="#ff9959"/></g><g><path d="m247.587 315.849h-94.626c-5.7 0-9.747-5.552-8.003-10.979l17.94-55.814c2.235-6.953 8.703-11.668 16.006-11.668h42.74c7.303 0 13.772 4.715 16.006 11.668l17.94 55.814c1.745 5.427-2.303 10.979-8.003 10.979z" fill="#ffcc4a"/><path d="m255.591 304.87-17.94-55.813c-2.235-6.953-8.703-11.668-16.007-11.668h-23.342c7.303 0 13.771 4.715 16.007 11.668l17.94 55.813c1.744 5.427-2.303 10.979-8.003 10.979h23.342c5.699 0 9.747-5.552 8.003-10.979z" fill="#ffb54c"/><path d="m147.989 295.439h104.57l-4.893-15.223h-94.783z" fill="#ff9959"/></g><g><path d="m359.039 315.849h-94.626c-5.7 0-9.747-5.552-8.003-10.979l17.94-55.814c2.235-6.953 8.703-11.668 16.007-11.668h42.74c7.303 0 13.772 4.715 16.007 11.668l17.94 55.814c1.742 5.427-2.305 10.979-8.005 10.979z" fill="#ffcc4a"/><path d="m367.042 304.87-17.94-55.813c-2.235-6.953-8.703-11.668-16.007-11.668h-23.342c7.303 0 13.772 4.715 16.007 11.668l17.94 55.813c1.744 5.427-2.303 10.979-8.003 10.979h23.342c5.7 0 9.747-5.552 8.003-10.979z" fill="#ffb54c"/><path d="m259.441 295.439h104.57l-4.894-15.223h-94.783z" fill="#ff9959"/></g><g><path d="m320.138 394.31c-5.7 0-9.747-5.552-8.003-10.979l17.94-55.814c2.235-6.953 8.703-11.668 16.007-11.668h42.74c7.303 0 13.771 4.715 16.006 11.668l17.94 55.814c1.744 5.427-2.303 10.979-8.003 10.979v2.918l-94.626.127v-3.045z" fill="#ffcc4a"/><path d="m422.768 383.331-17.94-55.814c-2.235-6.953-8.703-11.668-16.007-11.668h-23.342c7.303 0 13.772 4.715 16.007 11.668l17.94 55.814c1.744 5.427-2.303 10.979-8.003 10.979h23.342c5.7 0 9.747-5.553 8.003-10.979z" fill="#ffb54c"/><path d="m315.167 373.899h104.57l-4.894-15.223h-94.783z" fill="#ff9959"/></g><g><path d="m208.687 394.31c-5.7 0-9.747-5.552-8.003-10.979l17.94-55.814c2.235-6.953 8.703-11.668 16.007-11.668h42.74c7.303 0 13.771 4.715 16.006 11.668l17.94 55.814c1.744 5.427-2.303 10.979-8.003 10.979v2.918l-94.626.127v-3.045z" fill="#ffcc4a"/><path d="m311.316 383.331-17.94-55.814c-2.235-6.953-8.703-11.668-16.007-11.668h-23.342c7.303 0 13.772 4.715 16.007 11.668l17.94 55.814c1.744 5.427-2.303 10.979-8.003 10.979h23.342c5.7 0 9.748-5.553 8.003-10.979z" fill="#ffb54c"/><path d="m203.715 373.899h104.57l-4.893-15.223h-94.784z" fill="#ff9959"/></g><g><path d="m97.235 394.31c-5.7 0-9.747-5.552-8.003-10.979l17.94-55.814c2.235-6.953 8.703-11.668 16.006-11.668h42.74c7.303 0 13.772 4.715 16.007 11.668l17.94 55.814c1.744 5.427-2.303 10.979-8.003 10.979v2.918l-94.626.127v-3.045z" fill="#ffcc4a"/><path d="m199.865 383.331-17.94-55.814c-2.235-6.953-8.703-11.668-16.007-11.668h-23.342c7.303 0 13.772 4.715 16.007 11.668l17.94 55.814c1.744 5.427-2.303 10.979-8.003 10.979h23.342c5.7 0 9.747-5.553 8.003-10.979z" fill="#ffb54c"/><path d="m92.263 373.899h104.57l-4.893-15.223h-94.783z" fill="#ff9959"/></g></g><path d="m491.381 91.676h-23.342c9.286 0 16.813 7.527 16.813 16.813v353.072c0 9.286-7.527 16.813-16.813 16.813h23.342c9.286 0 16.813-7.527 16.813-16.813v-353.072c0-9.286-7.527-16.813-16.813-16.813z" fill="#97bedb"/><path d="m434.414 133.708v263.519l23.342-2.918v-260.601c0-4.643-3.764-8.407-8.406-8.407h-23.342c4.642.001 8.406 3.765 8.406 8.407z" fill="#455f80"/><path d="m62.651 444.748h151.316l42.033-5.074 42.033 5.074h151.316c4.643 0 8.406-3.764 8.406-8.407v-42.032h-159.722l-42.033 5.075-42.286-5.074h-159.469v42.032c0 4.642 3.763 8.406 8.406 8.406z" fill="#f4fbff"/><path d="m213.968 394.309h84.065v50.439h-84.065z" fill="#b0d16f"/><path d="m434.414 436.342c0 4.643-3.764 8.407-8.407 8.407h23.342c4.643 0 8.406-3.764 8.406-8.407v-42.032h-23.342v42.032z" fill="#bfebff"/><path d="m274.69 394.309h23.342v50.439h-23.342z" fill="#89c247"/></g></svg>