<svg id="Capa_1" enable-background="new 0 0 512 512" height="512" viewBox="0 0 512 512" width="512" xmlns="http://www.w3.org/2000/svg"><g><path d="m349.867 51.2h85.333c9.426 0 17.067 7.641 17.067 17.067v426.667c0 9.426-7.641 17.067-17.067 17.067h-307.2c-9.426 0-17.067-7.641-17.067-17.067v-34.134z" fill="#e5f7ff"/><path d="m435.2 51.2h-23.693c9.426 0 17.067 7.641 17.067 17.067v426.667c0 9.426-7.641 17.067-17.067 17.067h23.693c9.426 0 17.067-7.641 17.067-17.067v-426.667c0-9.426-7.641-17.067-17.067-17.067z" fill="#bfebff"/><path d="m401.067 102.4v341.333c0 9.426-7.641 17.067-17.067 17.067h-307.2c-9.426 0-17.067-7.641-17.067-17.067v-426.666c0-9.426 7.641-17.067 17.067-17.067h221.867z" fill="#f4fbff"/><path d="m401.067 102.4h-85.333c-9.426 0-17.067-7.641-17.067-17.067v-85.333z" fill="#bfebff"/><path d="m377.372 78.706v365.028c0 9.426-7.641 17.067-17.067 17.067h23.695c9.426 0 17.067-7.641 17.067-17.067v-341.334z" fill="#bfebff"/><path d="m299.2 426.667h-188.8c-4.418 0-8-3.582-8-8v-18.133c0-4.418 3.582-8 8-8h188.8c4.418 0 8 3.582 8 8v18.133c0 4.418-3.582 8-8 8z" fill="#587aa1"/><path d="m367.467 426.667h-18.133c-4.418 0-8-3.582-8-8v-18.133c0-4.418 3.582-8 8-8h18.133c4.418 0 8 3.582 8 8v18.133c0 4.418-3.582 8-8 8z" fill="#b0d16f"/><path d="m162.667 68.267h-52.267c-4.418 0-8-3.582-8-8v-18.134c0-4.418 3.582-8 8-8h52.267c4.418 0 8 3.582 8 8v18.133c0 4.419-3.582 8.001-8 8.001z" fill="#45c5ff"/><path d="m162.425 34.133h-23.694c4.552 0 8.241 3.69 8.241 8.241v17.651c0 4.551-3.69 8.241-8.241 8.241h23.694c4.552 0 8.242-3.69 8.242-8.241v-17.65c0-4.552-3.69-8.242-8.242-8.242z" fill="#0ca8ed"/><path d="m367.225 392.533h-17.651c-1.068 0-2.085.21-3.022.58 3.055 1.206 5.22 4.178 5.22 7.662v17.65c0 3.484-2.165 6.456-5.22 7.662.937.37 1.954.579 3.022.579h17.651c4.552 0 8.241-3.69 8.241-8.241v-17.65c.001-4.552-3.689-8.242-8.241-8.242z" fill="#89c247"/><path d="m298.959 392.533h-23.694c4.552 0 8.241 3.69 8.241 8.241v17.65c0 4.552-3.69 8.241-8.241 8.241h23.694c4.552 0 8.241-3.69 8.241-8.241v-17.65c0-4.551-3.69-8.241-8.241-8.241z" fill="#455f80"/><g><circle cx="230.4" cy="238.933" fill="#ffcc4a" r="119.467"/><path d="m230.4 119.467c-3.998 0-7.95.2-11.847.584 60.418 5.948 107.62 56.901 107.62 118.883s-47.202 112.934-107.62 118.883c3.898.384 7.849.584 11.847.584 65.98 0 119.467-53.487 119.467-119.467s-53.487-119.467-119.467-119.467z" fill="#ffb54c"/><g fill="#ffe278"><path d="m230.4 119.467c-2.597 0-5.171.092-7.726.256v33.877c0 4.267 3.459 7.726 7.726 7.726s7.726-3.459 7.726-7.726v-33.878c-2.555-.163-5.13-.255-7.726-.255z"/><path d="m140.642 160.102 23.955 23.955c1.509 1.509 3.486 2.263 5.463 2.263s3.955-.754 5.463-2.263c3.018-3.017 3.018-7.909 0-10.926l-23.955-23.955c-3.872 3.403-7.522 7.053-10.926 10.926z"/><path d="m145.067 231.207h-33.878c-.163 2.555-.256 5.13-.256 7.726s.092 5.171.256 7.727h33.878c4.267 0 7.726-3.459 7.726-7.726s-3.459-7.727-7.726-7.727z"/><path d="m164.597 293.81-23.955 23.955c3.404 3.873 7.054 7.523 10.927 10.926l23.955-23.955c3.018-3.017 3.018-7.909 0-10.927-3.018-3.016-7.91-3.016-10.927.001z"/><path d="m230.4 316.54c-4.267 0-7.726 3.459-7.726 7.726v33.878c2.555.163 5.13.255 7.726.255s5.171-.092 7.726-.255v-33.878c0-4.267-3.459-7.726-7.726-7.726z"/><path d="m320.158 317.765-23.955-23.955c-3.017-3.017-7.909-3.017-10.927 0s-3.018 7.91 0 10.927l23.955 23.955c3.873-3.404 7.523-7.054 10.927-10.927z"/><path d="m309.231 149.175-23.955 23.955c-3.018 3.017-3.018 7.909 0 10.926 1.508 1.509 3.486 2.263 5.463 2.263s3.955-.754 5.463-2.263l23.955-23.955c-3.403-3.872-7.053-7.522-10.926-10.926z"/><path d="m349.611 231.207h-33.878c-4.267 0-7.726 3.459-7.726 7.726s3.459 7.726 7.726 7.726h33.878c.163-2.555.255-5.13.255-7.727.001-2.595-.092-5.17-.255-7.725z"/></g><circle cx="230.4" cy="238.933" fill="#ffb54c" r="85.333"/><path d="m230.4 231.207c-7.033 0-12.754-5.721-12.754-12.754 0-7.032 5.721-12.753 12.754-12.753 7.032 0 12.753 5.721 12.753 12.753 0 4.267 3.459 7.726 7.726 7.726s7.726-3.459 7.726-7.726c0-12.874-8.673-23.753-20.48-27.122v-3.598c0-4.267-3.459-7.726-7.726-7.726s-7.726 3.459-7.726 7.726v3.598c-11.807 3.369-20.48 14.248-20.48 27.122 0 15.553 12.653 28.207 28.207 28.207 7.032 0 12.753 5.721 12.753 12.753s-5.721 12.754-12.753 12.754c-7.033 0-12.754-5.721-12.754-12.754 0-4.267-3.459-7.726-7.726-7.726s-7.726 3.459-7.726 7.726c0 12.874 8.673 23.753 20.48 27.122v3.598c0 4.267 3.459 7.726 7.726 7.726s7.726-3.459 7.726-7.726v-3.598c11.807-3.369 20.48-14.248 20.48-27.122 0-15.552-12.653-28.206-28.206-28.206z" fill="#ffe278"/><path d="m230.4 153.6c-4.022 0-7.973.299-11.847.837 41.518 5.77 73.486 41.39 73.486 84.496s-31.968 78.726-73.486 84.496c3.874.538 7.825.837 11.847.837 47.128 0 85.333-38.205 85.333-85.333s-38.205-85.333-85.333-85.333z" fill="#ff9959"/></g></g></svg>