<svg id="Capa_1" enable-background="new 0 0 512 512" height="512" viewBox="0 0 512 512" width="512" xmlns="http://www.w3.org/2000/svg"><g><path d="m272.76 495.07h-187.46c-18.851 0-34.132-15.281-34.132-34.132v-426.806c0-18.851 15.282-34.132 34.132-34.132h341.4c18.851 0 34.132 15.281 34.132 34.132v426.806c0 18.85-15.281 34.132-34.132 34.132h-51.544z" fill="#ff9959"/><path d="m375.423 460.938h8.454c4.019 0 7.495-2.805 8.333-6.736 2.869-13.47 14.127-24.868 27.778-27.757 3.923-.83 6.712-4.318 6.712-8.328v-341.165c0-4.01-2.789-7.498-6.712-8.328-13.651-2.888-24.909-14.287-27.778-27.757-.837-3.931-4.314-6.736-8.333-6.736h-255.754c-4.019 0-7.495 2.805-8.333 6.736-2.869 13.47-14.127 24.868-27.778 27.757-3.923.83-6.712 4.318-6.712 8.328v341.165c0 4.01 2.789 7.498 6.712 8.328 13.65 2.889 24.909 14.287 27.778 27.757.837 3.931 4.314 6.736 8.333 6.736z" fill="#f4fbff"/><g><g><path d="m428.833 41.936h-4.267c-4.267 0-7.726-3.459-7.726-7.726s3.459-7.726 7.726-7.726h4.267c4.267 0 7.726 3.459 7.726 7.726s-3.459 7.726-7.726 7.726z" fill="#f4fbff"/></g></g><g><g><path d="m87.434 41.936h-4.267c-4.267 0-7.726-3.459-7.726-7.726s3.459-7.726 7.726-7.726h4.267c4.267 0 7.726 3.459 7.726 7.726s-3.459 7.726-7.726 7.726z" fill="#f4fbff"/></g></g><g><g><path d="m87.434 468.664h-4.267c-4.267 0-7.726-3.459-7.726-7.726 0-4.268 3.459-7.726 7.726-7.726h4.267c4.267 0 7.726 3.459 7.726 7.726s-3.459 7.726-7.726 7.726z" fill="#f4fbff"/></g></g><g><g><path d="m428.834 468.664h-4.266c-4.267 0-7.726-3.459-7.726-7.726 0-4.268 3.459-7.726 7.726-7.726h4.266c4.267 0 7.726 3.459 7.726 7.726s-3.459 7.726-7.726 7.726z" fill="#f4fbff"/></g></g><g><path d="m316.146 102.532h-120.529c-4.418 0-8-3.582-8-8v-18.132c0-4.418 3.582-8 8-8h120.528c4.418 0 8 3.582 8 8v18.132c.001 4.418-3.581 8-7.999 8z" fill="#85d9ff"/><g><g><path d="m392.489 144.39h-273.057c-4.267 0-7.726-3.459-7.726-7.726 0-4.268 3.459-7.726 7.726-7.726h273.056c4.267 0 7.726 3.459 7.726 7.726.001 4.267-3.458 7.726-7.725 7.726z" fill="#587aa1"/></g></g><g><g><path d="m392.489 178.523h-273.057c-4.267 0-7.726-3.459-7.726-7.726 0-4.268 3.459-7.726 7.726-7.726h273.056c4.267 0 7.726 3.459 7.726 7.726.001 4.267-3.458 7.726-7.725 7.726z" fill="#587aa1"/></g></g><g><g><path d="m324.224 212.655h-136.528c-4.267 0-7.726-3.459-7.726-7.726 0-4.268 3.459-7.726 7.726-7.726h136.528c4.267 0 7.726 3.459 7.726 7.726.001 4.267-3.458 7.726-7.726 7.726z" fill="#587aa1"/></g></g><g><path d="m170.63 280.841h-51.198c-4.267 0-7.726-3.459-7.726-7.726 0-4.268 3.459-7.726 7.726-7.726h51.198c4.267 0 7.726 3.459 7.726 7.726.001 4.267-3.459 7.726-7.726 7.726z" fill="#89c247"/></g></g><path d="m187.696 367.726c-7.032 0-12.752-5.72-12.752-12.753 0-7.032 5.721-12.754 12.752-12.754 7.032 0 12.753 5.721 12.753 12.754 0 4.268 3.459 7.726 7.726 7.726s7.726-3.459 7.726-7.726c0-12.874-8.672-23.753-20.479-27.122v-3.598c0-4.268-3.459-7.726-7.726-7.726s-7.726 3.459-7.726 7.726v3.598c-11.807 3.369-20.479 14.248-20.479 27.122 0 15.552 12.653 28.205 28.205 28.205 7.032 0 12.753 5.72 12.753 12.753 0 7.032-5.721 12.754-12.753 12.754s-12.752-5.721-12.752-12.754c0-4.268-3.459-7.726-7.726-7.726s-7.726 3.459-7.726 7.726c0 12.874 8.672 23.753 20.479 27.122v3.598c0 4.268 3.459 7.726 7.726 7.726s7.726-3.459 7.726-7.726v-3.598c11.807-3.369 20.479-14.248 20.479-27.122 0-15.552-12.653-28.205-28.206-28.205z" fill="#ffcc4a"/><path d="m426.7 0h-23.764c18.85 0 34.132 15.281 34.132 34.132v426.806c0 18.85-15.281 34.132-34.132 34.132h23.764c18.851 0 34.132-15.281 34.132-34.132v-426.806c0-18.851-15.282-34.132-34.132-34.132z" fill="#ff776b"/><path d="m419.987 68.624c-13.651-2.888-24.909-14.287-27.778-27.757-.837-3.931-4.314-6.736-8.333-6.736h-23.764c4.019 0 7.495 2.805 8.333 6.736 2.869 13.47 14.127 24.868 27.778 27.757 3.923.83 6.712 4.318 6.712 8.328v341.165c0 4.01-2.789 7.498-6.712 8.328-13.651 2.889-24.909 14.287-27.778 27.757-.837 3.931-4.314 6.736-8.333 6.736h15.31 8.454c4.019 0 7.495-2.805 8.333-6.736 2.869-13.47 14.127-24.868 27.778-27.757 3.923-.83 6.712-4.318 6.712-8.328v-341.165c.001-4.01-2.788-7.498-6.712-8.328z" fill="#bfebff"/><path d="m315.904 68.4h-23.694c4.552 0 8.242 3.69 8.242 8.241v17.649c0 4.552-3.69 8.241-8.242 8.241h23.694c4.552 0 8.241-3.69 8.241-8.241v-17.649c.001-4.551-3.689-8.241-8.241-8.241z" fill="#45c5ff"/><g><g><path d="m373.621 440.113-5.989-11.978-86.816.003-5.988 11.975c-1.185 2.37-1.802 4.983-1.802 7.632v55.715c0 5.824 5.706 9.937 11.231 8.095l22.901-7.634 17.066-25.498 17.066 25.498 22.901 7.634c5.525 1.842 11.231-2.271 11.231-8.095v-55.715c.001-2.649-.616-5.262-1.801-7.632z" fill="#ff4f75"/><path d="m341.291 428.136-34.132.001v75.785l14.368-4.789c1.751-.584 3.645-.584 5.397 0l14.368 4.789v-75.786z" fill="#f4fbff"/><g><g><g><path d="m373.621 440.113-5.989-11.978-23.694.001 5.989 11.977c1.185 2.37 1.802 4.983 1.802 7.632v55.715c0 1.329-.309 2.562-.833 3.663l13.296 4.432c5.525 1.842 11.231-2.271 11.231-8.095v-55.715c0-2.649-.617-5.262-1.802-7.632z" fill="#f71e78"/></g></g></g><ellipse cx="324.225" cy="375.452" fill="#ffcc4a" rx="68.264" ry="68.264" transform="matrix(.707 -.707 .707 .707 -170.522 339.229)"/><ellipse cx="324.225" cy="375.452" fill="#f4fbff" rx="34.132" ry="34.132" transform="matrix(.196 -.981 .981 .196 -107.523 619.749)"/><path d="m324.225 307.188c-4.043 0-7.997.372-11.847 1.046 32.051 5.612 56.417 33.56 56.417 67.218s-24.366 61.607-56.417 67.218c3.85.674 7.804 1.046 11.847 1.046 37.701 0 68.264-30.563 68.264-68.264s-30.563-68.264-68.264-68.264z" fill="#ffb54c"/><path d="m324.225 341.32c-4.166 0-8.156.749-11.847 2.115 13.01 4.816 22.285 17.332 22.285 32.017s-9.275 27.201-22.285 32.017c3.691 1.366 7.681 2.115 11.847 2.115 18.85 0 34.132-15.281 34.132-34.132 0-18.85-15.282-34.132-34.132-34.132z" fill="#bfebff"/></g><g><path d="m326.358 383.179h-4.267c-4.267 0-7.726-3.459-7.726-7.726 0-4.268 3.459-7.726 7.726-7.726h4.267c4.267 0 7.726 3.459 7.726 7.726s-3.459 7.726-7.726 7.726z" fill="#587aa1"/></g></g></g></svg>