<svg id="Capa_1" enable-background="new 0 0 512 512" height="512" viewBox="0 0 512 512" width="512" xmlns="http://www.w3.org/2000/svg"><g><g><path d="m494.932 34.134c0-19.171-15.804-34.65-35.094-34.121l-46.559-.013-.005 85.333h64.591c9.426 0 17.067-7.641 17.067-17.067z" fill="#e5f7ff"/><path d="m494.932 34.134c0-19.171-15.804-34.65-35.094-34.121h-23.693c19.29-.529 35.093 14.95 35.093 34.121v34.132c0 9.426-7.641 17.067-17.066 17.067h23.693c9.426 0 17.067-7.641 17.066-17.067z" fill="#bfebff"/><path d="m426.663 34.844c0-18.599 14.583-34.321 33.175-34.831.32-.009.637-.001.955-.001l.005-.012h-273.065c-18.852 0-34.134 15.283-34.134 34.134l.001 127.995.001 187.733v76.804l223.56 85.334h15.373c18.852 0 34.134-15.283 34.134-34.134l-.005-392.533z" fill="#f4fbff"/><path d="m437.278 0-.005.012c-.318 0-.635-.007-.955.001-18.592.51-33.175 16.232-33.175 34.831v50.489l.005 392.533c0 16.626-11.89 30.47-27.629 33.508l1.642.627h15.373c18.852 0 34.134-15.283 34.134-34.134l-.005-392.533v-50.49c0-18.599 14.583-34.321 33.175-34.831.32-.009.637-.001.955-.001l.005-.012z" fill="#bfebff"/><g><path d="m316.266 170.667h-120.532c-4.418 0-8-3.582-8-8v-18.133c0-4.418 3.582-8 8-8h120.532c4.418 0 8 3.582 8 8v18.133c0 4.419-3.582 8-8 8z" fill="#587aa1"/><path d="m384.533 170.667h-18.133c-4.418 0-8-3.582-8-8v-18.133c0-4.418 3.582-8 8-8h18.133c4.418 0 8 3.582 8 8v18.133c0 4.419-3.582 8-8 8z" fill="#b0d16f"/><path d="m384.291 136.534h-17.651c-1.068 0-2.085.21-3.022.579 3.055 1.206 5.22 4.178 5.22 7.662v17.65c0 3.484-2.165 6.456-5.22 7.662.936.37 1.954.579 3.022.579h17.651c4.552 0 8.241-3.69 8.241-8.241v-17.65c.001-4.551-3.689-8.241-8.241-8.241z" fill="#89c247"/><path d="m316.025 136.534h-23.695c4.552 0 8.241 3.69 8.241 8.242v17.65c0 4.552-3.69 8.241-8.241 8.241h23.694c4.552 0 8.242-3.69 8.242-8.241v-17.65c0-4.552-3.69-8.242-8.241-8.242z" fill="#455f80"/></g><g><path d="m316.266 238.934h-120.532c-4.418 0-8-3.582-8-8v-18.134c0-4.418 3.582-8 8-8h120.532c4.418 0 8 3.582 8 8v18.133c0 4.419-3.582 8.001-8 8.001z" fill="#587aa1"/><path d="m384.533 238.934h-18.133c-4.418 0-8-3.582-8-8v-18.134c0-4.418 3.582-8 8-8h18.133c4.418 0 8 3.582 8 8v18.133c0 4.419-3.582 8.001-8 8.001z" fill="#b0d16f"/><path d="m384.291 204.8h-17.651c-1.068 0-2.085.21-3.022.58 3.055 1.206 5.22 4.178 5.22 7.662v17.65c0 3.484-2.165 6.456-5.22 7.662.936.37 1.954.579 3.022.579h17.651c4.552 0 8.241-3.69 8.241-8.241v-17.65c.001-4.552-3.689-8.242-8.241-8.242z" fill="#89c247"/><path d="m316.025 204.8h-23.695c4.552 0 8.241 3.69 8.241 8.242v17.65c0 4.552-3.69 8.241-8.241 8.241h23.694c4.552 0 8.242-3.69 8.242-8.241v-17.65c0-4.552-3.69-8.242-8.241-8.242z" fill="#455f80"/></g><g><path d="m316.266 307.2h-120.532c-4.418 0-8-3.582-8-8v-18.133c0-4.418 3.582-8 8-8h120.532c4.418 0 8 3.582 8 8v18.133c0 4.418-3.582 8-8 8z" fill="#587aa1"/><path d="m384.533 307.2h-18.133c-4.418 0-8-3.582-8-8v-18.133c0-4.418 3.582-8 8-8h18.133c4.418 0 8 3.582 8 8v18.133c0 4.418-3.582 8-8 8z" fill="#b0d16f"/><path d="m384.291 273.066h-17.651c-1.068 0-2.085.21-3.022.579 3.055 1.206 5.22 4.178 5.22 7.662v17.65c0 3.484-2.165 6.456-5.22 7.662.936.37 1.954.58 3.022.58h17.651c4.552 0 8.241-3.69 8.241-8.242v-17.65c.001-4.551-3.689-8.241-8.241-8.241z" fill="#89c247"/><path d="m316.025 273.066h-23.695c4.552 0 8.241 3.69 8.241 8.241v17.65c0 4.552-3.69 8.242-8.241 8.242h23.694c4.552 0 8.242-3.69 8.242-8.242v-17.65c0-4.551-3.69-8.241-8.241-8.241z" fill="#455f80"/></g><g><path d="m316.266 375.466h-120.532c-4.418 0-8-3.582-8-8v-18.133c0-4.418 3.582-8 8-8h120.532c4.418 0 8 3.582 8 8v18.133c0 4.418-3.582 8-8 8z" fill="#587aa1"/><path d="m384.533 375.466h-18.133c-4.418 0-8-3.582-8-8v-18.133c0-4.418 3.582-8 8-8h18.133c4.418 0 8 3.582 8 8v18.133c0 4.418-3.582 8-8 8z" fill="#b0d16f"/><path d="m384.291 341.333h-17.651c-1.068 0-2.085.21-3.022.579 3.055 1.206 5.22 4.178 5.22 7.662v17.65c0 3.484-2.165 6.456-5.22 7.662.936.37 1.954.58 3.022.58h17.651c4.552 0 8.241-3.69 8.241-8.242v-17.65c.001-4.551-3.689-8.241-8.241-8.241z" fill="#89c247"/><path d="m316.025 341.333h-23.695c4.552 0 8.241 3.69 8.241 8.241v17.65c0 4.552-3.69 8.242-8.241 8.242h23.694c4.552 0 8.242-3.69 8.242-8.242v-17.65c0-4.551-3.69-8.241-8.241-8.241z" fill="#455f80"/></g><path d="m333.333 85.335h-86.4c-4.418 0-8-3.582-8-8v-18.133c0-4.418 3.582-8 8-8h86.4c4.418 0 8 3.582 8 8v18.133c0 4.418-3.582 8-8 8z" fill="#45c5ff"/><path d="m290.133 179.201c0-9.426-7.641-17.067-17.067-17.067h-238.93c-9.426 0-17.068 7.641-17.068 17.067v17.066l7.142 17.066-7.142 17.067v102.399c0 9.426 7.642 17.067 17.068 17.067l238.93-.001c9.426 0 17.067-7.641 17.067-17.067v-102.398l-11.847-17.067 11.847-17.066z" fill="#45c5ff"/><path d="m212.801 264.533h35.199c4.418 0 8 3.582 8 8v35.2c0 4.418-3.582 8-8 8h-35.2c-4.418 0-8-3.582-8-8v-35.2c.001-4.418 3.582-8 8.001-8z" fill="#f4fbff"/><ellipse cx="68.268" cy="290.133" fill="#ff4f75" rx="17.067" ry="17.067" transform="matrix(.707 -.707 .707 .707 -185.16 133.251)"/><path d="m119.469 512c-18.852 0-34.134-15.283-34.134-34.134v-34.133c0-9.426 7.641-17.067 17.067-17.067h238.932c9.426 0 17.067 7.641 17.067 17.067l-.001 34.132c0 18.852 15.282 34.134 34.134 34.134h-273.065z" fill="#e5f7ff"/><path d="m358.4 477.866v-34.132c0-9.426-7.641-17.067-17.066-17.067h-23.72c9.426 0 17.067 7.641 17.066 17.067l-.001 34.132c0 18.852 15.282 34.134 34.134 34.134h23.72c-18.851 0-34.133-15.282-34.133-34.134z" fill="#bfebff"/><path d="m333.092 51.202h-23.694c4.551 0 8.241 3.69 8.241 8.241v17.65c0 4.552-3.69 8.242-8.241 8.242h23.694c4.552 0 8.241-3.69 8.241-8.242v-17.65c0-4.552-3.69-8.241-8.241-8.241z" fill="#0ca8ed"/><path d="m290.133 196.267v-17.066c0-9.426-7.641-17.067-17.067-17.067h-23.694c9.426 0 17.067 7.641 17.067 17.067v153.597c0 9.426-7.641 17.067-17.067 17.067l-215.239.001h.002l238.931-.001c9.426 0 17.067-7.641 17.067-17.067v-102.398l-11.847-17.067z" fill="#0ca8ed"/><path d="m17.068 196.267h273.065v34.133h-273.065z" fill="#587aa1"/><path d="m266.439 196.267h23.694v34.133h-23.694z" fill="#455f80"/><path d="m247.759 264.533h-23.694c4.551 0 8.241 3.69 8.241 8.241v34.717c0 4.552-3.69 8.242-8.241 8.242h23.694c4.551 0 8.241-3.69 8.241-8.242v-34.717c0-4.551-3.69-8.241-8.241-8.241z" fill="#bfebff"/><path d="m68.268 273.066c-4.605 0-8.777 1.833-11.847 4.798 3.213 3.103 5.22 7.448 5.22 12.268s-2.006 9.165-5.22 12.269c3.07 2.965 7.242 4.798 11.847 4.798 9.426 0 17.067-7.641 17.067-17.067 0-9.425-7.641-17.066-17.067-17.066z" fill="#f71e78"/></g></g></svg>