<svg id="Capa_1" enable-background="new 0 0 512 512" height="512" viewBox="0 0 512 512" width="512" xmlns="http://www.w3.org/2000/svg"><g><path d="m259.892 426.667h-208.697c-18.851 0-34.133-15.282-34.133-34.132v-34.134h258.859z" fill="#bfebff"/><path d="m17.062 153.6v204.8c0 18.851 15.282 34.133 34.133 34.133h204.809l204.825-84.475v-154.458l-221.883-59.733z" fill="#f4fbff"/><path d="m437.135 308.058h23.694v-154.458l-23.694-6.379z" fill="#bfebff"/><path d="m460.829 153.6v-85.334c0-18.851-15.282-34.133-34.132-34.133h-375.502c-18.851 0-34.133 15.282-34.133 34.133v85.334z" fill="#ff4f75"/><path d="m426.697 34.133h-23.703c18.851 0 34.132 15.282 34.132 34.133v85.334h23.703v-85.334c0-18.851-15.281-34.133-34.132-34.133z" fill="#f71e78"/><g><g><g><path d="m124.613 75.993h-22.217c-4.268 0-7.726-3.459-7.726-7.726s3.459-7.726 7.726-7.726h22.217c4.268 0 7.726 3.459 7.726 7.726s-3.459 7.726-7.726 7.726z" fill="#f71e78"/></g><g><path d="m179.195 75.993h-22.217c-4.268 0-7.726-3.459-7.726-7.726s3.459-7.726 7.726-7.726h22.217c4.268 0 7.726 3.459 7.726 7.726s-3.458 7.726-7.726 7.726z" fill="#f71e78"/></g><g><path d="m320.891 75.993h-22.218c-4.268 0-7.726-3.459-7.726-7.726s3.459-7.726 7.726-7.726h22.218c4.268 0 7.726 3.459 7.726 7.726s-3.458 7.726-7.726 7.726z" fill="#f71e78"/></g><g><path d="m375.474 75.993h-22.218c-4.268 0-7.726-3.459-7.726-7.726s3.459-7.726 7.726-7.726h22.218c4.268 0 7.726 3.459 7.726 7.726s-3.458 7.726-7.726 7.726z" fill="#f71e78"/></g></g></g><path d="m162.129 64c0 11.782-9.551 21.333-21.333 21.333s-21.333-9.551-21.333-21.333v-42.667c-.001-11.782 9.55-21.333 21.332-21.333s21.333 9.551 21.333 21.333v42.667z" fill="#abd5ed"/><path d="m358.407 64c0 11.782-9.551 21.333-21.333 21.333s-21.334-9.551-21.334-21.333v-42.667c0-11.782 9.552-21.333 21.334-21.333s21.333 9.551 21.333 21.333z" fill="#abd5ed"/><path d="m145.607 221.867h-18.133c-4.418 0-8-3.582-8-8v-18.133c0-4.418 3.582-8 8-8h18.133c4.418 0 8 3.582 8 8v18.133c0 4.418-3.582 8-8 8z" fill="#587aa1"/><path d="m213.874 221.867h-18.134c-4.418 0-8-3.582-8-8v-18.133c0-4.418 3.582-8 8-8h18.133c4.418 0 8 3.582 8 8v18.133c.001 4.418-3.581 8-7.999 8z" fill="#587aa1"/><path d="m282.14 221.867h-18.133c-4.418 0-8-3.582-8-8v-18.133c0-4.418 3.582-8 8-8h18.133c4.418 0 8 3.582 8 8v18.133c0 4.418-3.581 8-8 8z" fill="#587aa1"/><path d="m350.396 221.867h-18.133c-4.418 0-8-3.582-8-8v-18.133c0-4.418 3.582-8 8-8h18.133c4.418 0 8 3.582 8 8v18.133c0 4.418-3.582 8-8 8z" fill="#ff4f75"/><path d="m418.663 221.867h-18.133c-4.418 0-8-3.582-8-8v-18.133c0-4.418 3.582-8 8-8h18.133c4.418 0 8 3.582 8 8v18.133c0 4.418-3.582 8-8 8z" fill="#587aa1"/><path d="m392.529 274.276v-9.742c0-4.713 3.82-8.533 8.533-8.533h17.067c4.713 0 8.533 3.82 8.533 8.533v17.066c0 .961-.159 1.884-.451 2.746" fill="#587aa1"/><path d="m77.34 290.134h-18.133c-4.418 0-8-3.582-8-8v-18.134c0-4.418 3.582-8 8-8h18.133c4.418 0 8 3.582 8 8v18.133c0 4.419-3.582 8.001-8 8.001z" fill="#587aa1"/><path d="m145.607 290.134h-18.133c-4.418 0-8-3.582-8-8v-18.134c0-4.418 3.582-8 8-8h18.133c4.418 0 8 3.582 8 8v18.133c0 4.419-3.582 8.001-8 8.001z" fill="#ff4f75"/><g fill="#587aa1"><path d="m213.874 290.134h-18.134c-4.418 0-8-3.582-8-8v-18.134c0-4.418 3.582-8 8-8h18.133c4.418 0 8 3.582 8 8v18.133c.001 4.419-3.581 8.001-7.999 8.001z"/><path d="m77.34 358.401h-18.133c-4.418 0-8-3.582-8-8v-18.133c0-4.418 3.582-8 8-8h18.133c4.418 0 8 3.582 8 8v18.133c0 4.418-3.582 8-8 8z"/><path d="m145.607 358.401h-18.133c-4.418 0-8-3.582-8-8v-18.133c0-4.418 3.582-8 8-8h18.133c4.418 0 8 3.582 8 8v18.133c0 4.418-3.582 8-8 8z"/><path d="m213.874 358.401h-18.134c-4.418 0-8-3.582-8-8v-18.133c0-4.418 3.582-8 8-8h18.133c4.418 0 8 3.582 8 8v18.133c.001 4.418-3.581 8-7.999 8z"/><path d="m282.14 290.134h-18.133c-4.418 0-8-3.582-8-8v-18.134c0-4.418 3.582-8 8-8h18.133c4.418 0 8 3.582 8 8v18.133c0 4.419-3.581 8.001-8 8.001z"/><path d="m324.724 284.35c-.293-.863-.453-1.787-.453-2.749v-17.067c0-4.713 3.821-8.533 8.533-8.533h17.067c4.713 0 8.533 3.82 8.533 8.533v9.74"/></g><path d="m337.073 0c-4.38 0-8.448 1.324-11.835 3.588 5.725 3.826 9.498 10.344 9.498 17.746v42.666c0 7.402-3.773 13.92-9.498 17.746 3.387 2.263 7.456 3.587 11.835 3.587 11.782 0 21.334-9.551 21.334-21.333v-42.667c0-11.782-9.551-21.333-21.334-21.333z" fill="#97bedb"/><path d="m140.795 0c-4.38 0-8.448 1.324-11.836 3.588 5.725 3.826 9.498 10.344 9.498 17.746v42.666c0 7.402-3.773 13.92-9.498 17.746 3.387 2.263 7.456 3.587 11.836 3.587 11.782 0 21.333-9.551 21.333-21.333v-42.667c.001-11.782-9.551-21.333-21.333-21.333z" fill="#97bedb"/><path d="m17.062 127.193h443.767v-15.452h-443.767z" fill="#f71e78"/><g><circle cx="375.471" cy="392.533" fill="#ffcc4a" r="119.467"/><path d="m375.471 273.066c-3.998 0-7.95.2-11.847.584 60.418 5.948 107.62 56.901 107.62 118.883s-47.202 112.934-107.62 118.883c3.897.384 7.849.584 11.847.584 65.98 0 119.467-53.487 119.467-119.467s-53.487-119.467-119.467-119.467z" fill="#ffb54c"/><g fill="#ffe278"><path d="m375.471 273.066c-2.596 0-5.171.092-7.726.255v33.879c0 4.267 3.459 7.726 7.726 7.726s7.726-3.459 7.726-7.726v-33.878c-2.555-.163-5.129-.256-7.726-.256z"/><path d="m285.713 313.702 23.955 23.955c1.509 1.509 3.486 2.263 5.463 2.263s3.955-.754 5.463-2.263c3.018-3.017 3.018-7.909 0-10.927l-23.955-23.955c-3.872 3.404-7.522 7.054-10.926 10.927z"/><path d="m290.138 384.807h-33.878c-.163 2.555-.256 5.13-.256 7.726s.092 5.171.256 7.727h33.878c4.267 0 7.726-3.459 7.726-7.726 0-4.268-3.459-7.727-7.726-7.727z"/><path d="m309.668 447.41-23.955 23.955c3.404 3.873 7.054 7.523 10.927 10.927l23.955-23.955c3.018-3.017 3.018-7.91 0-10.927-3.018-3.018-7.91-3.018-10.927 0z"/><path d="m375.471 470.14c-4.267 0-7.726 3.459-7.726 7.726v33.878c2.555.163 5.13.255 7.726.255 2.597 0 5.171-.092 7.727-.255v-33.878c0-4.267-3.46-7.726-7.727-7.726z"/><path d="m465.229 471.365-23.955-23.955c-3.017-3.017-7.909-3.017-10.926 0-3.018 3.017-3.018 7.91 0 10.927l23.955 23.955c3.872-3.404 7.522-7.055 10.926-10.927z"/><path d="m454.302 302.775-23.955 23.955c-3.018 3.017-3.018 7.909 0 10.927 1.508 1.509 3.486 2.263 5.463 2.263s3.955-.754 5.463-2.263l23.955-23.955c-3.403-3.873-7.053-7.523-10.926-10.927z"/><path d="m494.682 384.807h-33.878c-4.267 0-7.726 3.459-7.726 7.726s3.459 7.726 7.726 7.726h33.878c.163-2.555.255-5.13.255-7.727s-.091-5.17-.255-7.725z"/></g><circle cx="375.471" cy="392.533" fill="#ffb54c" r="85.333"/><path d="m375.471 384.807c-7.033 0-12.754-5.721-12.754-12.754 0-7.032 5.721-12.754 12.754-12.754 7.032 0 12.754 5.721 12.754 12.754 0 4.267 3.459 7.726 7.726 7.726s7.726-3.459 7.726-7.726c0-12.874-8.673-23.753-20.48-27.122v-3.598c0-4.267-3.459-7.726-7.726-7.726s-7.726 3.459-7.726 7.726v3.598c-11.807 3.369-20.48 14.248-20.48 27.122 0 15.553 12.653 28.207 28.207 28.207 7.032 0 12.754 5.721 12.754 12.754 0 7.032-5.721 12.753-12.754 12.753s-12.754-5.721-12.754-12.753c0-4.267-3.459-7.726-7.726-7.726s-7.726 3.459-7.726 7.726c0 12.874 8.673 23.753 20.48 27.122v3.598c0 4.267 3.459 7.726 7.726 7.726s7.726-3.459 7.726-7.726v-3.598c11.807-3.369 20.48-14.248 20.48-27.122-.001-15.554-12.654-28.207-28.207-28.207z" fill="#ffe278"/><path d="m375.471 307.2c-4.022 0-7.973.299-11.847.837 41.518 5.77 73.486 41.39 73.486 84.496s-31.968 78.726-73.486 84.496c3.874.538 7.825.837 11.847.837 47.128 0 85.333-38.205 85.333-85.333s-38.205-85.333-85.333-85.333z" fill="#ff9959"/></g></g></svg>