<svg id="Capa_1" enable-background="new 0 0 512 512" height="512" viewBox="0 0 512 512" width="512" xmlns="http://www.w3.org/2000/svg"><g><path d="m432.961 461.58c-3.685-.932-6.295-4.2-6.295-8v-231.713c0-37.703-30.564-68.267-68.267-68.267l-17.067-34.133c37.703 0 68.267-30.564 68.267-68.267v-17.067c0-9.426-7.641-17.067-17.067-17.067h-62.033c-1.376 0-2.657-.691-3.42-1.836-6.115-9.178-16.554-15.23-28.412-15.23h-85.333c-11.858 0-22.297 6.052-28.414 15.231-.763 1.145-2.044 1.836-3.42 1.836h-62.033c-9.426 0-17.067 7.641-17.067 17.067v17.066c0 37.703 30.564 68.267 68.267 68.267l-17.067 34.133c-37.703 0-68.267 30.564-68.267 68.267v231.713c0 3.801-2.61 7.069-6.295 8-10.942 2.766-19.078 12.578-19.301 24.325-.272 14.422 11.749 26.095 26.173 26.095h340.18c14.424 0 26.445-11.673 26.172-26.095-.223-11.748-8.359-21.559-19.301-24.325z" fill="#ff9959"/><path d="m432.961 461.58c-3.685-.932-6.294-4.2-6.294-8v-231.713c0-37.703-30.564-68.267-68.267-68.267l-17.067-34.133c37.703 0 68.267-30.564 68.267-68.267v-17.067c0-9.426-7.641-17.067-17.067-17.067h-23.694c9.426 0 17.067 7.641 17.067 17.067v17.067c0 37.703-30.564 68.267-68.267 68.267l17.067 34.133c37.703 0 68.267 30.564 68.267 68.267v231.713c0 3.801 2.61 7.069 6.295 8 10.942 2.766 19.078 12.578 19.301 24.326.272 14.35-11.82 26.095-26.172 26.095h23.694c14.352 0 26.444-11.745 26.172-26.095-.224-11.749-8.36-21.56-19.302-24.326z" fill="#ff776b"/><g><path d="m358.4 119.467c-3.112 0-201.688 0-204.8 0-9.426 0-17.067 7.641-17.067 17.067s7.641 17.066 17.067 17.066h204.8c9.426 0 17.067-7.641 17.067-17.067s-7.641-17.066-17.067-17.066z" fill="#ffcc4a"/><path d="m358.4 119.467c-.646 0-9.711 0-23.694 0 9.426 0 17.067 7.641 17.067 17.067s-7.641 17.067-17.067 17.067h23.694c9.426 0 17.067-7.641 17.067-17.067s-7.641-17.067-17.067-17.067z" fill="#ffb54c"/><g fill="#ffe278"><path d="m248.274 119.467v34.133h15.453v-34.133c-5.143 0-10.311 0-15.453 0z"/><path d="m188.54 119.467v34.133h15.453v-34.133c-5.449 0-10.63 0-15.453 0z"/><path d="m308.007 119.467v34.133h15.453v-34.133c-4.823 0-10.004 0-15.453 0z"/></g></g><g fill="#ff776b"><path d="m392.533 453.073c-4.267 0-7.726 3.459-7.726 7.726s3.459 7.726 7.726 7.726h52.442c-3.243-3.321-7.371-5.773-12.014-6.947-3.685-.932-6.294-4.2-6.294-8v-.506h-34.134z"/><path d="m85.333 453.579c0 3.801-2.61 7.069-6.294 8-4.643 1.174-8.771 3.626-12.014 6.947h52.442c4.267 0 7.726-3.459 7.726-7.726s-3.459-7.726-7.726-7.726h-34.134z"/></g><g fill="#ff776b"><path d="m327.566 15.818c.019.414.032.83.032 1.248v34.134c0 4.268 3.459 7.726 7.726 7.726s7.726-3.459 7.726-7.726v-34.133h-12.55c-1.118 0-2.168-.463-2.934-1.249z"/><path d="m176.547 58.927c4.267 0 7.726-3.459 7.726-7.726v-34.134c0-.373.013-.743.028-1.113-.752.704-1.748 1.113-2.803 1.113h-12.678v34.133c.001 4.268 3.46 7.727 7.727 7.727z"/></g><g><circle cx="256" cy="307.2" fill="#ffcc4a" r="119.467"/><path d="m256 187.733c-3.998 0-7.95.201-11.847.584 60.418 5.948 107.62 56.901 107.62 118.883s-47.202 112.934-107.62 118.883c3.897.384 7.849.584 11.847.584 65.98 0 119.467-53.487 119.467-119.467s-53.487-119.467-119.467-119.467z" fill="#ffb54c"/><g fill="#ffe278"><path d="m256 187.733c-2.597 0-5.171.092-7.726.256v33.878c0 4.267 3.459 7.726 7.726 7.726s7.726-3.459 7.726-7.726v-33.878c-2.555-.163-5.13-.256-7.726-.256z"/><path d="m166.242 228.368 23.955 23.955c1.509 1.508 3.486 2.263 5.463 2.263s3.955-.755 5.463-2.263c3.018-3.017 3.018-7.91 0-10.927l-23.955-23.955c-3.872 3.405-7.522 7.055-10.926 10.927z"/><path d="m170.667 299.474h-33.878c-.163 2.555-.255 5.13-.255 7.726s.092 5.171.255 7.727h33.878c4.267 0 7.726-3.459 7.726-7.726s-3.459-7.727-7.726-7.727z"/><path d="m190.197 362.076-23.955 23.955c3.404 3.873 7.054 7.523 10.926 10.926l23.955-23.955c3.018-3.017 3.018-7.909 0-10.927-3.017-3.016-7.909-3.016-10.926.001z"/><path d="m256 384.807c-4.267 0-7.726 3.459-7.726 7.726v33.878c2.555.163 5.13.256 7.726.256s5.171-.092 7.727-.256v-33.878c0-4.267-3.46-7.726-7.727-7.726z"/><path d="m345.758 386.032-23.955-23.955c-3.017-3.017-7.909-3.017-10.927 0s-3.018 7.909 0 10.927l23.955 23.955c3.873-3.405 7.523-7.055 10.927-10.927z"/><path d="m334.831 217.442-23.955 23.955c-3.018 3.017-3.018 7.91 0 10.927 1.509 1.508 3.486 2.263 5.463 2.263s3.955-.755 5.463-2.263l23.955-23.955c-3.403-3.873-7.053-7.523-10.926-10.927z"/><path d="m375.211 299.474h-33.878c-4.267 0-7.726 3.459-7.726 7.726s3.459 7.726 7.726 7.726h33.878c.163-2.555.255-5.13.255-7.727.001-2.596-.092-5.17-.255-7.725z"/></g><circle cx="256" cy="307.2" fill="#ffb54c" r="85.333"/><path d="m256 299.474c-7.033 0-12.754-5.721-12.754-12.754 0-7.032 5.721-12.753 12.754-12.753 7.032 0 12.754 5.721 12.754 12.753 0 4.267 3.459 7.726 7.726 7.726s7.726-3.459 7.726-7.726c0-12.874-8.673-23.753-20.48-27.122v-3.598c0-4.267-3.459-7.726-7.726-7.726s-7.726 3.459-7.726 7.726v3.598c-11.807 3.369-20.48 14.248-20.48 27.122 0 15.553 12.653 28.207 28.207 28.207 7.032 0 12.754 5.721 12.754 12.753s-5.721 12.754-12.754 12.754-12.754-5.721-12.754-12.754c0-4.267-3.459-7.726-7.726-7.726s-7.726 3.459-7.726 7.726c0 12.874 8.673 23.753 20.48 27.122v3.598c0 4.267 3.459 7.726 7.726 7.726s7.726-3.459 7.726-7.726v-3.598c11.807-3.369 20.48-14.248 20.48-27.122-.001-15.553-12.654-28.206-28.207-28.206z" fill="#ffe278"/><path d="m256 221.867c-4.022 0-7.973.299-11.847.837 41.518 5.77 73.486 41.39 73.486 84.496s-31.968 78.726-73.486 84.496c3.874.538 7.825.837 11.847.837 47.128 0 85.333-38.205 85.333-85.333s-38.205-85.333-85.333-85.333z" fill="#ff9959"/></g></g></svg>