<svg id="Layer_1" enable-background="new 0 0 48 48" height="512" viewBox="0 0 48 48" width="512" xmlns="http://www.w3.org/2000/svg"><path id="XMLID_956_" d="m31.402 47.12-9.992-9.992c-1.164-1.164-1.164-3.051 0-4.215 1.165-1.164 3.052-1.164 4.216 0l3.037 3.037c1.002-20.385-12.68-33.639-26.704-33.762-.507-.004-.61-.716-.144-.874 14.579-4.922 32.89 4.03 36.201 27.427.295 2.266.519 4.558.681 6.868l2.697-2.697c1.164-1.164 3.052-1.164 4.215 0 1.165 1.164 1.165 3.051 0 4.215l-9.992 9.992c-1.163 1.165-3.05 1.165-4.215.001z" fill="#ed7161"/></svg>