<svg id="Capa_1" enable-background="new 0 0 512 512" height="512" viewBox="0 0 512 512" width="512" xmlns="http://www.w3.org/2000/svg"><g><g><ellipse cx="255.995" cy="119.467" fill="#ffcc4a" rx="119.467" ry="119.467" transform="matrix(.707 -.707 .707 .707 -9.497 216.007)"/><path d="m255.995 0c-3.998 0-7.95.2-11.847.584 60.417 5.948 107.62 56.901 107.62 118.883s-47.202 112.934-107.62 118.882c3.897.384 7.849.584 11.847.584 65.98 0 119.467-53.487 119.467-119.467-.001-65.979-53.488-119.466-119.467-119.466z" fill="#ffb54c"/><g fill="#ffe278"><path d="m255.995 0c-2.596 0-5.171.092-7.726.255v33.878c0 4.267 3.459 7.726 7.726 7.726s7.726-3.459 7.726-7.726v-33.878c-2.555-.163-5.13-.255-7.726-.255z"/><path d="m166.236 40.635 23.955 23.955c1.509 1.509 3.486 2.263 5.463 2.263s3.955-.755 5.463-2.263c3.018-3.017 3.018-7.909 0-10.926l-23.955-23.955c-3.872 3.403-7.522 7.053-10.926 10.926z"/><path d="m170.661 111.74h-33.878c-.163 2.555-.255 5.13-.255 7.726 0 2.597.092 5.171.255 7.727h33.878c4.267 0 7.726-3.459 7.726-7.726.001-4.267-3.459-7.727-7.726-7.727z"/><path d="m190.191 174.343-23.955 23.955c3.404 3.873 7.054 7.523 10.927 10.927l23.955-23.955c3.018-3.017 3.018-7.909 0-10.927-3.017-3.017-7.91-3.017-10.927 0z"/><path d="m255.995 197.073c-4.267 0-7.726 3.459-7.726 7.726v33.878c2.555.163 5.13.256 7.726.256s5.171-.092 7.727-.256v-33.877c-.001-4.267-3.46-7.727-7.727-7.727z"/><path d="m345.753 198.298-23.955-23.955c-3.017-3.017-7.909-3.017-10.926 0-3.018 3.017-3.018 7.91 0 10.927l23.955 23.955c3.872-3.404 7.522-7.054 10.926-10.927z"/><path d="m334.826 29.708-23.955 23.955c-3.018 3.017-3.018 7.909 0 10.926 1.508 1.509 3.486 2.263 5.463 2.263s3.955-.755 5.463-2.263l23.955-23.955c-3.403-3.872-7.053-7.522-10.926-10.926z"/><path d="m375.206 111.74h-33.878c-4.267 0-7.726 3.459-7.726 7.726s3.459 7.726 7.726 7.726h33.878c.163-2.555.255-5.13.255-7.727 0-2.595-.092-5.169-.255-7.725z"/></g><circle cx="255.995" cy="119.467" fill="#ffb54c" r="85.333"/><path d="m255.995 111.74c-7.033 0-12.754-5.721-12.754-12.754 0-7.032 5.721-12.753 12.754-12.753 7.032 0 12.754 5.721 12.754 12.753 0 4.267 3.459 7.726 7.726 7.726s7.726-3.459 7.726-7.726c0-12.874-8.673-23.753-20.48-27.122v-3.598c0-4.267-3.459-7.726-7.726-7.726s-7.726 3.459-7.726 7.726v3.598c-11.807 3.369-20.48 14.248-20.48 27.122 0 15.553 12.653 28.207 28.207 28.207 7.032 0 12.754 5.721 12.754 12.754 0 7.032-5.721 12.753-12.754 12.753s-12.754-5.721-12.754-12.753c0-4.267-3.459-7.726-7.726-7.726s-7.726 3.459-7.726 7.726c0 12.874 8.673 23.753 20.48 27.122v3.598c0 4.267 3.459 7.726 7.726 7.726s7.726-3.459 7.726-7.726v-3.598c11.807-3.369 20.48-14.248 20.48-27.122-.001-15.553-12.654-28.207-28.207-28.207z" fill="#ffe278"/><path d="m255.995 34.133c-4.022 0-7.973.299-11.847.837 41.518 5.77 73.486 41.39 73.486 84.496s-31.968 78.726-73.486 84.496c3.874.538 7.825.837 11.847.837 47.128 0 85.333-38.205 85.333-85.333s-38.205-85.333-85.333-85.333z" fill="#ff9959"/></g><g><path d="m432.172 276.376c71.861-45.062 41.129-131.848 26.382-164.022-3.427-7.476-11.691-11.42-19.678-9.449-47.766 11.786-84.804 35.167-107.264 52.479h-151.224c-22.46-17.312-59.498-40.692-107.264-52.479-7.987-1.971-16.251 1.974-19.678 9.449-14.747 32.174-45.479 118.96 26.382 164.022z" fill="#ffd3bd"/><path d="m418.058 244.797c9.952-7.103 16.88-15.654 20.956-25.832 5.249-13.107 6.14-29.458 2.649-48.6-1.741-9.548-4.349-18.529-7.113-26.385-.394-1.119-1.234-2.023-2.315-2.512-1.005-.455-2.151-.518-3.197-.168-27.608 9.24-50.401 22.494-66.943 34.096h-212.19c-16.542-11.602-39.335-24.855-66.944-34.096-1.046-.35-2.192-.287-3.197.168-1.081.49-1.921 1.393-2.315 2.512-2.763 7.856-5.371 16.837-7.113 26.385-3.49 19.142-2.599 35.493 2.65 48.6 4.075 10.177 11.003 18.729 20.956 25.832z" fill="#ff4f75"/><g><g><g><path d="m441.663 170.365c-1.741-9.548-4.349-18.529-7.113-26.385-.394-1.12-1.234-2.023-2.315-2.512-1.005-.455-2.151-.518-3.197-.168-5.875 1.966-11.518 4.122-16.943 6.398 2.283 6.928 4.379 14.59 5.852 22.668 3.491 19.142 2.599 35.493-2.649 48.6-4.075 10.177-11.003 18.729-20.956 25.832h23.716c9.952-7.103 16.88-15.654 20.956-25.832 5.248-13.107 6.14-29.459 2.649-48.601z" fill="#f71e78"/></g></g></g><g fill="#ffb2a3"><path d="m180.388 155.383c-22.46-17.312-59.498-40.692-107.264-52.479-4.959-1.224-10.023-.164-13.972 2.603 32.623 9.379 59.785 23.913 80.129 37.416 12.193 8.093 26.473 12.46 41.107 12.46z"/><path d="m458.553 112.354c-3.427-7.476-11.691-11.42-19.678-9.449-3.294.813-6.532 1.686-9.723 2.603 2.411 1.689 4.407 4.012 5.706 6.846 14.748 32.174 45.479 118.961-26.381 164.022h23.694c71.862-45.062 41.13-131.848 26.382-164.022z"/></g><path d="m384.229 433.391c32.641-14.401 55.594-50.219 59.05-92.149 1.7-20.626-1.453-41.414-9.094-59.955l-6.646-16.125c-25.039-60.757-70.711-105.206-125.029-121.681-30.541-9.263-62.492-9.263-93.033 0-54.318 16.475-99.989 60.924-125.029 121.681l-6.646 16.125c-7.641 18.54-10.794 39.329-9.094 59.955 3.456 41.93 26.409 77.748 59.05 92.149 82.838 36.545 173.635 36.545 256.471 0z" fill="#ffd3bd"/><path d="m212.261 324.267h87.467c8.837 0 16 7.163 16 16v28.8c0 17.673-14.327 32-32 32h-55.467c-17.673 0-32-14.327-32-32v-28.8c0-8.837 7.164-16 16-16z" fill="#ff9959"/><g><g><g><path d="m238.928 374.66c-4.267 0-7.726-3.459-7.726-7.726v-8.534c0-4.268 3.459-7.726 7.726-7.726s7.726 3.459 7.726 7.726v8.533c0 4.268-3.459 7.727-7.726 7.727z" fill="#587aa1"/></g><g><path d="m273.061 374.66c-4.267 0-7.726-3.459-7.726-7.726v-8.534c0-4.268 3.459-7.726 7.726-7.726s7.726 3.459 7.726 7.726v8.533c0 4.268-3.459 7.727-7.726 7.727z" fill="#587aa1"/></g></g></g><path d="m105.095 418.672 3.699 59.195 37.074 17.066 44.704-17.066 7.511-22.534h115.823l7.511 22.534 40.889 17.066 40.888-17.066 3.7-59.195z" fill="#ffd3bd"/><g fill="#ffb2a3"><path d="m383.2 418.672-4.833 77.326c-.562 8.995-8.021 16.002-17.034 16.002h23.694c9.012 0 16.471-7.007 17.033-16.002l4.833-77.326z"/><path d="m159.39 500.33c-2.323 6.969-8.845 11.67-16.191 11.67h23.694c7.346 0 13.868-4.701 16.191-11.67l14.999-44.997-21.069-7.891z"/></g><ellipse cx="170.661" cy="290.133" fill="#587aa1" rx="17.067" ry="17.067" transform="matrix(.707 -.707 .707 .707 -155.17 205.654)"/><ellipse cx="341.328" cy="290.133" fill="#587aa1" rx="17.067" ry="17.067" transform="matrix(.228 -.974 .974 .228 -19.01 556.289)"/><path d="m170.661 273.067c-4.605 0-8.777 1.833-11.847 4.798 3.213 3.103 5.22 7.448 5.22 12.269s-2.006 9.165-5.22 12.269c3.07 2.965 7.242 4.798 11.847 4.798 9.426 0 17.067-7.641 17.067-17.067s-7.641-17.067-17.067-17.067z" fill="#455f80"/><path d="m341.328 273.067c-4.606 0-8.777 1.833-11.847 4.798 3.213 3.103 5.22 7.448 5.22 12.269s-2.006 9.165-5.22 12.269c3.07 2.965 7.242 4.798 11.847 4.798 9.426 0 17.067-7.641 17.067-17.067s-7.642-17.067-17.067-17.067z" fill="#455f80"/><path d="m299.245 324.267h-23.694c9.103 0 16.483 7.38 16.483 16.483v27.351c0 18.206-14.759 32.966-32.966 32.966h23.694c18.207 0 32.966-14.759 32.966-32.966v-27.351c0-9.104-7.38-16.483-16.483-16.483z" fill="#ff776b"/><path d="m434.186 281.287-6.646-16.125c-25.039-60.757-70.711-105.206-125.029-121.681-19.129-5.802-38.811-7.968-58.353-6.502 11.659.874 23.268 3.04 34.681 6.502 54.318 16.475 99.989 60.924 125.029 121.681l6.646 16.125c7.641 18.54 10.794 39.329 9.094 59.954-3.456 41.929-26.409 77.748-59.05 92.149-37.653 16.612-76.951 25.646-116.398 27.156 47.336 1.812 94.887-7.222 140.07-27.156 32.641-14.401 55.594-50.219 59.05-92.149 1.7-20.625-1.454-41.413-9.094-59.954z" fill="#ffb2a3"/><path d="m321.417 477.867 7.488 22.464c2.323 6.969 8.845 11.67 16.191 11.67h39.932c9.012 0 16.471-7.007 17.033-16.002l1.133-18.131h-81.777z" fill="#587aa1"/><path d="m183.084 500.33 7.488-22.464h-81.778l1.133 18.131c.562 8.995 8.021 16.002 17.034 16.002h39.932c7.347.001 13.868-4.7 16.191-11.669z" fill="#587aa1"/><g fill="#455f80"><path d="m145.874 477.746c-.001.04-.006.079-.006.12v8.534c0 4.268 3.459 7.726 7.726 7.726s7.726-3.459 7.726-7.726v-8.534c0-.04-.005-.079-.006-.12z"/><path d="m350.668 477.867v8.534c0 4.268 3.459 7.726 7.726 7.726s7.726-3.459 7.726-7.726v-8.534z"/><path d="m166.876 477.867-7.485 22.464c-2.323 6.969-8.845 11.67-16.191 11.67h23.694c7.346 0 13.868-4.701 16.191-11.67l7.488-22.464z"/><path d="m379.5 477.867-1.133 18.131c-.562 8.995-8.021 16.002-17.034 16.002h23.694c9.012 0 16.471-7.007 17.033-16.002l1.133-18.131z"/></g></g></g></svg>